<?xml version="1.0" encoding="UTF-8" standalone="no"?>
<!-- Created with Inkscape (http://www.inkscape.org/) -->

<svg
   xmlns:dc="http://purl.org/dc/elements/1.1/"
   xmlns:cc="http://creativecommons.org/ns#"
   xmlns:rdf="http://www.w3.org/1999/02/22-rdf-syntax-ns#"
   xmlns:svg="http://www.w3.org/2000/svg"
   xmlns="http://www.w3.org/2000/svg"
   xmlns:sodipodi="http://sodipodi.sourceforge.net/DTD/sodipodi-0.dtd"
   xmlns:inkscape="http://www.inkscape.org/namespaces/inkscape"
   width="210mm"
   height="297mm"
   viewBox="0 0 744.09448819 1052.3622047"
   id="svg4298"
   version="1.1"
   inkscape:version="0.91 r13725"
   sodipodi:docname="FußwegFahrradFrei.svg">
  <defs
     id="defs4300" />
  <sodipodi:namedview
     id="base"
     pagecolor="#ffffff"
     bordercolor="#666666"
     borderopacity="1.0"
     inkscape:pageopacity="0.0"
     inkscape:pageshadow="2"
     inkscape:zoom="0.35"
     inkscape:cx="-90.714286"
     inkscape:cy="520"
     inkscape:document-units="px"
     inkscape:current-layer="layer1"
     showgrid="false"
     inkscape:window-width="1920"
     inkscape:window-height="1028"
     inkscape:window-x="-8"
     inkscape:window-y="-8"
     inkscape:window-maximized="1" />
  <metadata
     id="metadata4303">
    <rdf:RDF>
      <cc:Work
         rdf:about="">
        <dc:format>image/svg+xml</dc:format>
        <dc:type
           rdf:resource="http://purl.org/dc/dcmitype/StillImage" />
        <dc:title></dc:title>
      </cc:Work>
    </rdf:RDF>
  </metadata>
  <g
     inkscape:label="Ebene 1"
     inkscape:groupmode="layer"
     id="layer1">
    <path
       style="opacity:1;fill:#154889;fill-opacity:1;fill-rule:evenodd;stroke:#000000;stroke-width:0.63066179px;stroke-linecap:butt;stroke-linejoin:miter;stroke-opacity:1"
       d="m 228.65609,450.89551 c 0,0 102.35548,107.91461 261.1013,43.67971 0,0 164.73138,-72.84954 115.81034,-236.36465 0,0 -35.48967,-129.34559 -193.52468,-146.04668 0,0 -131.15076,-16.688421 -213.24069,98.49342 0,0 -42.64828,65.09125 -28.4321,135.32138 0,0 9.00334,60.80891 58.28583,104.91682 z"
       id="path4170-6"
       inkscape:connector-curvature="0"
       sodipodi:nodetypes="ccccccc" />
    <path
       style="fill:none;fill-rule:evenodd;stroke:#000000;stroke-width:2.08118391;stroke-linecap:butt;stroke-linejoin:miter;stroke-miterlimit:4;stroke-dasharray:none;stroke-opacity:1"
       d="m 624.33187,358.74209 c -20.10453,86.6025 -97.61266,131.55084 -97.61266,131.55084 -80.55761,51.81607 -171.54038,35.7574 -171.54038,35.7574 -78.66212,-9.84939 -127.70742,-56.5267 -127.70742,-56.5267 0,0 -74.92602,-59.91018 -74.92602,-156.20245 0,0 -4.69084,-81.7575 67.01525,-149.58605 0,0 56.96284,-59.9555 163.51695,-66.011651 0,0 138.72108,-7.26733 211.76779,104.165191 0,0 51.60158,66.61732 29.48649,156.85342 z"
       id="path4172-7"
       inkscape:connector-curvature="0" />
    <path
       style="fill:#ffffff;fill-opacity:1;fill-rule:evenodd;stroke:#000000;stroke-width:0;stroke-linecap:butt;stroke-linejoin:miter;stroke-miterlimit:4;stroke-dasharray:none;stroke-opacity:1"
       d="M 432.89319,357.755 383.7294,316.85896 c -7.10809,-7.70827 -0.35542,-16.70112 -0.35542,-16.70112 l -5.92315,-14.13169 -11.84682,-20.98328 -10.89907,-18.19996 -2.84298,-0.64221 0,50.21028 c 18.71773,12.4187 30.71297,31.29368 30.71297,31.29368 11.89519,15.89727 16.08363,45.8751 16.08363,45.8751 l -133.8627,-0.90834 c 0,0 3.35074,-35.73112 30.49201,-62.3781 0,0 -9.76756,-5.63888 -12.13694,-41.82452 0,0 -1.65855,-40.89615 38.8573,-53.52902 l 15.16368,-0.42811 c 0,0 21.7979,1.71289 34.35551,21.1975 l 19.1916,32.97383 c 0,0 18.00689,26.76455 11.60988,34.901 0,0 -2.60632,4.06818 -4.50179,4.06818 0,0 9.2405,6.31639 10.54343,7.81526 0,0 17.05941,14.774 21.56118,16.48689 0,0 15.87448,8.35054 33.05236,4.06821 l 11.37272,-2.24824 42.58349,47.07294 c 0,0 3.51824,13.47481 -7.37162,15.14027 l -28.9841,-30.73482 10.21968,45.72371 -14.40812,0 9.21465,48.44889 0.12101,0.57086 c 0,0 -1.30313,2.99764 -8.5887,3.47944 0,0 -6.51573,0.85642 -8.70741,-2.0341 l -8.9586,-45.92265 -12.06273,-0.1517 -5.44493,52.30972 c 0,0 -1.84713,3.34597 -8.48157,2.65013 0,0 -5.68649,-0.0557 -7.28581,-2.99764 z"
       id="path4158-6"
       inkscape:connector-curvature="0" />
    <path
       style="fill:#ffffff;fill-opacity:1;fill-rule:evenodd;stroke:#000000;stroke-width:0;stroke-linecap:butt;stroke-linejoin:miter;stroke-miterlimit:4;stroke-dasharray:none;stroke-opacity:1"
       d="m 312.0569,193.74219 c 0,0 7.81866,10.27752 24.4042,8.35043 16.58529,-1.92696 21.0871,-17.34328 21.0871,-17.34328 0,0 4.97564,-12.41885 -8.05584,-23.33872 0,0 -10.18802,-8.99285 -26.53661,-4.71062 0,0 -16.34838,6.63769 -16.82224,20.98345 0,0 -1.18468,10.2775 5.92339,16.05874 z"
       id="path4160-4"
       inkscape:connector-curvature="0" />
    <path
       style="fill:#154889;fill-opacity:1;fill-rule:evenodd;stroke:#000000;stroke-width:0;stroke-linecap:butt;stroke-linejoin:miter;stroke-miterlimit:4;stroke-dasharray:none;stroke-opacity:1"
       d="m 304.83036,301.65669 6.51573,-5.67415 0,-47.9917 -6.52784,-1.58066 -4.3369,25.72941 c 0,0 -0.50286,4.54213 0.25148,6.05613 z"
       id="path4162-2"
       inkscape:connector-curvature="0" />
    <path
       style="fill:#ffffff;fill-opacity:1;fill-rule:evenodd;stroke:#000000;stroke-width:0;stroke-linecap:butt;stroke-linejoin:miter;stroke-miterlimit:4;stroke-dasharray:none;stroke-opacity:1"
       d="m 308.18808,379.48429 19.43435,0 0,69.48429 c 0,0 -1.11219,4.38932 -9.87929,3.85402 0,0 -6.5155,0.10754 -8.64792,-3.63998 z"
       id="path4164-0"
       inkscape:connector-curvature="0" />
    <path
       style="fill:#ffffff;fill-opacity:1;fill-rule:evenodd;stroke:#000000;stroke-width:0;stroke-linecap:butt;stroke-linejoin:miter;stroke-miterlimit:4;stroke-dasharray:none;stroke-opacity:1"
       d="m 335.09872,379.43432 19.19158,-0.0557 0,83.98072 c 0,0 0.82928,6.26918 -8.47045,7.17917 0,0 -8.17408,0.48206 -10.06957,-5.78109 z"
       id="path4166-3"
       inkscape:connector-curvature="0" />
    <path
       style="fill:#ffffff;fill-opacity:1;fill-rule:evenodd;stroke:#000000;stroke-width:0;stroke-linecap:butt;stroke-linejoin:miter;stroke-miterlimit:4;stroke-dasharray:none;stroke-opacity:1"
       d="m 429.57608,313.11186 c 0,0 6.6342,14.45288 25.2337,11.45528 0,0 19.66547,-3.10468 18.8362,-22.2681 0,0 0,-13.27527 -16.23014,-18.41403 0,0 -15.1637,-3.96114 -25.11501,6.95875 0,0 -9.12179,9.42112 -2.72475,22.2681 z"
       id="path4168-5"
       inkscape:connector-curvature="0" />
    <path
       style="fill:#000000;fill-opacity:1;fill-rule:evenodd;stroke:#000000;stroke-width:2.20824313px;stroke-linecap:butt;stroke-linejoin:miter;stroke-opacity:1"
       d="m 558.0614,791.00687 0,-208.6026 c 0,0 0.32991,-20.84275 -18.21249,-19.10005 l -305.87957,0 c 0,0 -21.05187,-2.99744 -19.23945,22.0975 l 0,210.23992 c 0,0 -2.37009,23.28255 23.42195,19.51831 l 305.74014,0 c 0,0 14.88513,0.21067 14.16942,-24.15308 z"
       id="path4266"
       inkscape:connector-curvature="0" />
    <path
       style="fill:#000000;fill-opacity:0.40500004;fill-rule:evenodd;stroke:#000000;stroke-width:2.20824313px;stroke-linecap:butt;stroke-linejoin:miter;stroke-opacity:1"
       d="m 378.64163,528.22037 18.4349,0.0985 0,27.80022 -18.3363,0 0,-24.74416 z"
       id="path4298"
       inkscape:connector-curvature="0"
       sodipodi:nodetypes="ccccc" />
    <path
       style="opacity:0.178;fill:#000000;fill-opacity:0.40500004;fill-rule:evenodd;stroke:#000000;stroke-width:2.20824313px;stroke-linecap:butt;stroke-linejoin:miter;stroke-opacity:1"
       d="m 377.55723,821.22169 20.70228,0"
       id="path4307"
       inkscape:connector-curvature="0" />
    <path
       style="fill:#ffffff;fill-opacity:1;fill-rule:evenodd;stroke:none;stroke-width:1px;stroke-linecap:butt;stroke-linejoin:miter;stroke-opacity:1"
       d="m 223.3737,797.31463 0.55767,-220.27789 c 0,0 0.55767,-6.41316 8.22558,-5.43725 l 310.96824,0 c 0,0 5.99492,0.97591 5.50696,8.71353 l 0,215.26246 c 0,0 1.44408,12.02704 -9.10423,9.95682 l -308.7303,0 c 0,0 -7.31936,0.42614 -7.42392,-8.21767 z"
       id="path4264"
       inkscape:connector-curvature="0" />
    <path
       style="fill:#000000;fill-opacity:1;fill-rule:evenodd;stroke:#000000;stroke-width:2.20824313px;stroke-linecap:butt;stroke-linejoin:miter;stroke-opacity:1"
       d="m 304.01485,704.97838 c 0,0 -21.88525,-14.39302 -13.21002,-42.98188 0,0 6.90076,-21.29378 31.54634,-24.84273 0,0 23.06824,-3.15463 37.2641,20.11078 0,0 12.8157,22.8711 -6.1121,43.3762 0,0 -21.49096,23.26543 -49.48832,4.33763 z"
       id="path4236"
       inkscape:connector-curvature="0" />
    <path
       style="fill:#ffffff;fill-opacity:1;fill-rule:evenodd;stroke:#000000;stroke-width:2.20824313px;stroke-linecap:butt;stroke-linejoin:miter;stroke-opacity:1"
       d="m 338.67106,647.99969 -8.92265,27.18618 c -7.11023,8.08615 -7.38907,-2.92773 -7.38907,-2.92773 l 7.94674,-26.3497 c -4.74017,-0.97592 -11.15333,0.41824 -11.15333,0.41824 -21.19127,5.15841 -22.30661,26.48911 -22.30661,26.48911 0,0 -2.23065,20.63364 18.12414,29.41686 0.69707,0.13934 22.30661,8.64382 36.10883,-11.1533 0,0 10.8745,-16.59055 -0.55767,-32.76286 0,0 -4.60072,-7.52848 -11.85038,-10.3168 z"
       id="path4238"
       inkscape:connector-curvature="0" />
    <path
       style="fill:#000000;fill-opacity:1;fill-rule:evenodd;stroke:#000000;stroke-width:2.20824313px;stroke-linecap:butt;stroke-linejoin:miter;stroke-opacity:1"
       d="m 433.89247,638.37994 -10.8745,-22.72485 2.92776,-7.66791 8.78322,0 0,-7.6679 -33.45992,0 c -1.39417,1.67299 -0.27883,3.06716 -0.27883,3.06716 1.67298,1.95182 16.59055,4.18248 16.59055,4.18248 l -3.20659,7.38907 -65.10746,0 c 1.25474,-16.17229 8.64383,-14.63871 8.64383,-14.63871 l 12.96572,0.27884 0,-7.5285 -15.47523,0 c -10.3168,0.97591 -12.54474,13.52365 -12.54474,13.52365 l -9.36532,30.85625 7.39367,2.95748 3.05605,-8.87242 42.37594,46.92757 c 0,0 2.08467,3.34938 9.03472,3.39869 l 14.04798,0.0985 c 0,0 4.04188,26.86367 34.01087,29.72255 0,0 18.29585,3.65592 33.2831,-15.37443 0,0 12.45909,-15.77747 3.38952,-37.8599 0,0 -5.42203,-15.0831 -23.75833,-20.60371 0,0 -13.61344,-3.16684 -22.43201,0.5361 z"
       id="path4240"
       inkscape:connector-curvature="0" />
    <path
       style="fill:#ffffff;fill-opacity:1;fill-rule:evenodd;stroke:#000000;stroke-width:2.20824313px;stroke-linecap:butt;stroke-linejoin:miter;stroke-opacity:1"
       d="m 346.96633,622.76532 45.65887,50.12018 18.61208,-49.77165 z"
       id="path4244"
       inkscape:connector-curvature="0" />
    <path
       style="fill:#ffffff;fill-opacity:1;fill-rule:evenodd;stroke:#000000;stroke-width:2.20824313px;stroke-linecap:butt;stroke-linejoin:miter;stroke-opacity:1"
       d="m 401.33872,674.07053 7.24967,0 c 0,0 0.65419,-14.81896 8.20163,-23.27057 0,0 5.93717,-7.23767 10.03799,-9.2712 l -7.4,-15.20832 z"
       id="path4246"
       inkscape:connector-curvature="0"
       sodipodi:nodetypes="cccc" />
    <path
       style="fill:#ffffff;fill-opacity:1;fill-rule:evenodd;stroke:#000000;stroke-width:2.20824313px;stroke-linecap:butt;stroke-linejoin:miter;stroke-opacity:1"
       d="m 417.37161,674.20996 23.63109,-0.20912 -10.80478,-24.18874 c 0,0 -15.96317,10.1774 -12.82631,24.39786 z"
       id="path4248"
       inkscape:connector-curvature="0" />
    <path
       style="fill:#ffffff;fill-opacity:1;fill-rule:evenodd;stroke:#000000;stroke-width:2.20824313px;stroke-linecap:butt;stroke-linejoin:miter;stroke-opacity:1"
       d="m 451.05034,702.95744 c -26.46935,4.3869 -33.27153,-20.89945 -33.27153,-20.89945 l 31.74349,-0.24646 c 0,0 2.56315,-1.28155 1.23229,-6.25997 l -13.44644,-29.57341 c 0,0 21.81868,-7.45878 34.7844,14.98726 0,0 8.78322,14.91754 -1.95182,30.25335 0,0 -8.62449,11.48756 -19.09039,11.73868 z"
       id="path4250"
       inkscape:connector-curvature="0" />
    <path
       style="fill:#000000;fill-opacity:1;fill-rule:evenodd;stroke:#000000;stroke-width:2.20824313px;stroke-linecap:butt;stroke-linejoin:miter;stroke-opacity:1"
       d="m 340.90172,783.65183 0.13934,-32.06576 -4.32191,-0.13934 0,-5.71606 4.18248,0 0.13934,-8.78324 c 0,0 0.83648,-4.87958 8.08614,-6.8314 l 6.83158,0 0,7.52838 -5.43725,0 c 0,0 -3.20656,-0.69707 -2.09123,8.22558 l 7.38907,0 0,5.99491 -7.6679,0 0,31.92634 z"
       id="path4252"
       inkscape:connector-curvature="0" />
    <path
       style="fill:#000000;fill-opacity:1;fill-rule:evenodd;stroke:#000000;stroke-width:2.20824313px;stroke-linecap:butt;stroke-linejoin:miter;stroke-opacity:1"
       d="m 360.55943,745.73058 0,38.20009 7.38907,0 0,-24.53729 c 0,0 1.53358,-9.89856 12.68689,-5.01899 l 5.57667,-6.13432 c 0,0 -10.17742,-7.38907 -17.70589,1.53358 l -0.27884,-3.76426 -0.17423,-0.31368 z"
       id="path4254"
       inkscape:connector-curvature="0" />
    <path
       style="fill:#000000;fill-opacity:1;fill-rule:evenodd;stroke:#000000;stroke-width:2.20824313px;stroke-linecap:butt;stroke-linejoin:miter;stroke-opacity:1"
       d="m 413.11941,773.61384 5.57666,4.87958 c 0,0 -8.22558,9.61973 -21.3307,4.46134 0,0 -10.8745,-2.78833 -9.20149,-20.35481 0,0 -0.55767,-14.63871 14.08106,-17.42704 0,0 12.68689,-0.55767 16.45113,10.73507 0,0 1.11534,2.23065 0.8365,11.85038 l -23.73762,0.0177 c 0,0 -0.69007,9.06957 7.88659,9.26674 0,0 5.07423,0.53658 9.43787,-3.42892 z"
       id="path4256"
       inkscape:connector-curvature="0" />
    <path
       style="fill:#ffffff;fill-opacity:1;fill-rule:evenodd;stroke:#000000;stroke-width:2.20824313px;stroke-linecap:butt;stroke-linejoin:miter;stroke-opacity:1"
       d="m 395.69638,760.97311 c 0,0 -1.28158,-7.49226 8.28091,-8.18233 0,0 8.18233,-0.39433 7.68941,8.47808 z"
       id="path4258"
       inkscape:connector-curvature="0" />
    <path
       style="fill:#000000;fill-opacity:1;fill-rule:evenodd;stroke:#000000;stroke-width:2.20824313px;stroke-linecap:butt;stroke-linejoin:miter;stroke-opacity:1"
       d="m 427.63704,745.49569 0,38.54568 8.37949,0 0,-38.54568 z"
       id="path4260"
       inkscape:connector-curvature="0" />
    <path
       style="fill:#000000;fill-opacity:1;fill-rule:evenodd;stroke:#000000;stroke-width:2.20824313px;stroke-linecap:butt;stroke-linejoin:miter;stroke-opacity:1"
       d="m 427.53844,730.11687 0,7.59083 8.57667,0 0,-7.59083 z"
       id="path4262"
       inkscape:connector-curvature="0" />
    <path
       style="fill:none;fill-rule:evenodd;stroke:#000000;stroke-width:2.20824313px;stroke-linecap:butt;stroke-linejoin:miter;stroke-opacity:1"
       d="m 208.39005,796.46273 c 0,0 -0.0985,26.81439 23.26543,24.74416 l 313.6888,0 c 0,0 16.26607,0.29573 17.8434,-23.364 l 0,-214.90937 c 0,0 3.74611,-28.58887 -26.91296,-26.51864 l -305.93019,0 c 0,0 -23.28254,-1.68478 -21.33072,27.8715 z"
       id="path4296"
       inkscape:connector-curvature="0" />
  </g>
</svg>
