<?xml version="1.0" encoding="UTF-8" standalone="no"?>
<!-- Created with Inkscape (http://www.inkscape.org/) -->

<svg
   xmlns:dc="http://purl.org/dc/elements/1.1/"
   xmlns:cc="http://creativecommons.org/ns#"
   xmlns:rdf="http://www.w3.org/1999/02/22-rdf-syntax-ns#"
   xmlns:svg="http://www.w3.org/2000/svg"
   xmlns="http://www.w3.org/2000/svg"
   xmlns:sodipodi="http://sodipodi.sourceforge.net/DTD/sodipodi-0.dtd"
   xmlns:inkscape="http://www.inkscape.org/namespaces/inkscape"
   width="210mm"
   height="297mm"
   viewBox="0 0 744.09448819 1052.3622047"
   id="svg4298"
   version="1.1"
   inkscape:version="0.91 r13725"
   sodipodi:docname="Fußweg.svg">
  <defs
     id="defs4300" />
  <sodipodi:namedview
     id="base"
     pagecolor="#ffffff"
     bordercolor="#666666"
     borderopacity="1.0"
     inkscape:pageopacity="0.0"
     inkscape:pageshadow="2"
     inkscape:zoom="0.35"
     inkscape:cx="-90.714286"
     inkscape:cy="520"
     inkscape:document-units="px"
     inkscape:current-layer="layer1"
     showgrid="false"
     inkscape:window-width="1920"
     inkscape:window-height="1028"
     inkscape:window-x="-8"
     inkscape:window-y="-8"
     inkscape:window-maximized="1" />
  <metadata
     id="metadata4303">
    <rdf:RDF>
      <cc:Work
         rdf:about="">
        <dc:format>image/svg+xml</dc:format>
        <dc:type
           rdf:resource="http://purl.org/dc/dcmitype/StillImage" />
        <dc:title></dc:title>
      </cc:Work>
    </rdf:RDF>
  </metadata>
  <g
     inkscape:label="Ebene 1"
     inkscape:groupmode="layer"
     id="layer1">
    <path
       style="opacity:1;fill:#154889;fill-opacity:1;fill-rule:evenodd;stroke:#000000;stroke-width:0.79463106px;stroke-linecap:butt;stroke-linejoin:miter;stroke-opacity:1"
       d="m 183.8494,683.35464 c 0,0 126.24673,138.90226 322.0461,56.22231 0,0 203.18205,-93.76827 142.84213,-304.2367 0,0 -43.77347,-166.48712 -238.69611,-187.98394 0,0 -161.76323,-21.4805 -263.01414,126.77578 0,0 -52.602987,83.78219 -35.06857,174.17888 0,0 11.10485,78.27017 71.89059,135.04367 z"
       id="path4170"
       inkscape:connector-curvature="0"
       sodipodi:nodetypes="ccccccc" />
    <path
       style="fill:none;fill-rule:evenodd;stroke:#000000;stroke-width:2.62228274;stroke-linecap:butt;stroke-linejoin:miter;stroke-miterlimit:4;stroke-dasharray:none;stroke-opacity:1"
       d="M 671.88158,564.73936 C 647.08437,676.20976 551.48472,734.06502 551.48472,734.06502 452.12381,800.76006 339.90435,780.09014 339.90435,780.09014 242.88136,767.4125 182.3882,707.33182 182.3882,707.33182 c 0,0 -92.414827,-77.11338 -92.414827,-201.05594 0,0 -5.78574,-105.23417 82.657567,-192.53966 0,0 70.25879,-77.17172 201.68415,-84.96688 0,0 171.10057,-9.35415 261.19744,134.07618 0,0 63.64614,85.74648 36.36905,201.89384 z"
       id="path4172"
       inkscape:connector-curvature="0" />
    <path
       style="fill:#ffffff;fill-opacity:1;fill-rule:evenodd;stroke:#000000;stroke-width:0;stroke-linecap:butt;stroke-linejoin:miter;stroke-miterlimit:4;stroke-dasharray:none;stroke-opacity:1"
       d="m 435.75836,563.46884 -60.63933,-52.6393 c -8.76719,-9.92168 -0.43836,-21.49687 -0.43836,-21.49687 l -7.3057,-18.18961 -14.61205,-27.00862 -13.44307,-23.42607 -3.50657,-0.8266 0,64.62814 c 23.08672,15.98475 37.88182,40.27965 37.88182,40.27965 14.6717,20.46216 19.83778,59.04812 19.83778,59.04812 l -165.10816,-1.16917 c 0,0 4.13286,-45.9913 37.60929,-80.28992 0,0 -12.04747,-7.25811 -14.9699,-53.83445 0,0 -2.04567,-52.63947 47.92717,-68.89988 l 18.70307,-0.55105 c 0,0 26.88585,2.20475 42.3746,27.28436 l 23.67119,42.44228 c 0,0 22.20998,34.44997 14.3198,44.92281 0,0 -3.21467,5.23635 -5.55257,5.23635 0,0 11.39737,8.13018 13.00441,10.05943 0,0 21.04132,19.01633 26.59387,21.22108 0,0 19.57982,10.74839 40.76725,5.23638 l 14.02728,-2.8938 52.5231,60.58992 c 0,0 4.33944,17.3441 -9.09227,19.48778 l -35.74939,-39.56031 12.60508,58.85327 -17.77119,0 11.36548,62.36097 0.14927,0.73478 c 0,0 -1.60731,3.85842 -10.59343,4.47855 0,0 -8.03658,1.10235 -10.73984,-2.61819 l -11.04966,-59.10932 -14.87835,-0.19531 -6.71585,67.33046 c 0,0 -2.27827,4.30675 -10.4613,3.4111 0,0 -7.0138,-0.0716 -8.98641,-3.85843 z"
       id="path4158"
       inkscape:connector-curvature="0" />
    <path
       style="fill:#ffffff;fill-opacity:1;fill-rule:evenodd;stroke:#000000;stroke-width:0;stroke-linecap:butt;stroke-linejoin:miter;stroke-miterlimit:4;stroke-dasharray:none;stroke-opacity:1"
       d="m 286.71716,352.3598 c 0,0 9.64365,13.2287 30.10047,10.74826 20.45655,-2.48028 26.00915,-22.3234 26.00915,-22.3234 0,0 6.13702,-15.98491 -9.9362,-30.04043 0,0 -12.56605,-11.57514 -32.73062,-6.06329 0,0 -20.16433,8.5437 -20.7488,27.00886 0,0 -1.4612,13.22867 7.306,20.67 z"
       id="path4160"
       inkscape:connector-curvature="0" />
    <path
       style="fill:#154889;fill-opacity:1;fill-rule:evenodd;stroke:#000000;stroke-width:0;stroke-linecap:butt;stroke-linejoin:miter;stroke-miterlimit:4;stroke-dasharray:none;stroke-opacity:1"
       d="m 277.80382,491.26192 8.03661,-7.30349 0,-61.77249 -8.05154,-2.03456 -5.34917,33.11761 c 0,0 -0.62024,5.8464 0.31017,7.79513 z"
       id="path4162"
       inkscape:connector-curvature="0" />
    <path
       style="fill:#ffffff;fill-opacity:1;fill-rule:evenodd;stroke:#000000;stroke-width:0;stroke-linecap:butt;stroke-linejoin:miter;stroke-miterlimit:4;stroke-dasharray:none;stroke-opacity:1"
       d="m 281.94529,591.43769 23.97061,0 0,89.4367 c 0,0 -1.37177,5.64971 -12.18524,4.96069 0,0 -8.03634,0.13838 -10.66649,-4.68519 z"
       id="path4164"
       inkscape:connector-curvature="0" />
    <path
       style="fill:#ffffff;fill-opacity:1;fill-rule:evenodd;stroke:#000000;stroke-width:0;stroke-linecap:butt;stroke-linejoin:miter;stroke-miterlimit:4;stroke-dasharray:none;stroke-opacity:1"
       d="m 315.13726,591.37338 23.67117,-0.0716 0,108.09578 c 0,0 1.02286,8.06935 -10.44756,9.24067 0,0 -10.08204,0.62048 -12.41997,-7.44113 z"
       id="path4166"
       inkscape:connector-curvature="0" />
    <path
       style="fill:#ffffff;fill-opacity:1;fill-rule:evenodd;stroke:#000000;stroke-width:0;stroke-linecap:butt;stroke-linejoin:miter;stroke-miterlimit:4;stroke-dasharray:none;stroke-opacity:1"
       d="m 431.66699,506.00646 c 0,0 8.18272,18.60299 31.12363,14.74465 0,0 24.25564,-3.9962 23.23283,-28.6624 0,0 0,-17.08726 -20.01848,-23.70159 0,0 -18.70312,-5.09861 -30.97722,8.95694 0,0 -11.25094,12.12638 -3.36076,28.6624 z"
       id="path4168"
       inkscape:connector-curvature="0" />
    <path
       style="opacity:0.178;fill:#000000;fill-opacity:0.40500004;fill-rule:evenodd;stroke:#000000;stroke-width:3.37391996px;stroke-linecap:butt;stroke-linejoin:miter;stroke-opacity:1"
       d="m 366.42748,784.72734 25.27104,0"
       id="path4307-0"
       inkscape:connector-curvature="0" />
  </g>
</svg>
