<?xml version="1.0" encoding="UTF-8" standalone="no"?>
<!-- Created with Inkscape (http://www.inkscape.org/) -->

<svg
   xmlns:dc="http://purl.org/dc/elements/1.1/"
   xmlns:cc="http://creativecommons.org/ns#"
   xmlns:rdf="http://www.w3.org/1999/02/22-rdf-syntax-ns#"
   xmlns:svg="http://www.w3.org/2000/svg"
   xmlns="http://www.w3.org/2000/svg"
   xmlns:sodipodi="http://sodipodi.sourceforge.net/DTD/sodipodi-0.dtd"
   xmlns:inkscape="http://www.inkscape.org/namespaces/inkscape"
   width="210mm"
   height="297mm"
   viewBox="0 0 744.09448819 1052.3622047"
   id="svg4298"
   version="1.1"
   inkscape:version="0.91 r13725"
   sodipodi:docname="GemeinsamerRadGehWeg.svg">
  <defs
     id="defs4300" />
  <sodipodi:namedview
     id="base"
     pagecolor="#ffffff"
     bordercolor="#666666"
     borderopacity="1.0"
     inkscape:pageopacity="0.0"
     inkscape:pageshadow="2"
     inkscape:zoom="0.7"
     inkscape:cx="240.84044"
     inkscape:cy="544.00637"
     inkscape:document-units="px"
     inkscape:current-layer="layer1"
     showgrid="false"
     inkscape:window-width="1920"
     inkscape:window-height="1028"
     inkscape:window-x="-8"
     inkscape:window-y="-8"
     inkscape:window-maximized="1" />
  <metadata
     id="metadata4303">
    <rdf:RDF>
      <cc:Work
         rdf:about="">
        <dc:format>image/svg+xml</dc:format>
        <dc:type
           rdf:resource="http://purl.org/dc/dcmitype/StillImage" />
        <dc:title></dc:title>
      </cc:Work>
    </rdf:RDF>
  </metadata>
  <g
     inkscape:label="Ebene 1"
     inkscape:groupmode="layer"
     id="layer1">
    <path
       style="opacity:1;fill:#154889;fill-opacity:1;fill-rule:evenodd;stroke:#000000;stroke-width:0.82489532px;stroke-linecap:butt;stroke-linejoin:miter;stroke-opacity:1"
       d="m 186.69582,689.67133 c 0,0 127.2338,148.523 324.56408,60.11653 0,0 204.77064,-100.26288 143.95893,-325.30883 0,0 -44.11569,-178.01843 -240.56237,-201.00416 0,0 -163.028,-22.96825 -265.07054,135.55656 0,0 -53.014286,89.58517 -35.34274,186.24287 0,0 11.19163,83.69151 72.45264,144.39703 z"
       id="path4170-0"
       inkscape:connector-curvature="0"
       sodipodi:nodetypes="ccccccc" />
    <path
       style="fill:none;fill-rule:evenodd;stroke:#000000;stroke-width:2.72215509;stroke-linecap:butt;stroke-linejoin:miter;stroke-miterlimit:4;stroke-dasharray:none;stroke-opacity:1"
       d="M 678.54375,562.84048 C 653.55267,682.03161 557.20553,743.89452 557.20553,743.89452 457.06781,815.20906 343.97094,793.10697 343.97094,793.10697 246.18934,779.55152 185.22319,715.30899 185.22319,715.30899 c 0,0 -93.137368,-82.45398 -93.137368,-214.98121 0,0 -5.830999,-112.52287 83.303828,-205.87537 0,0 70.80811,-82.51682 203.26104,-90.85191 0,0 172.43835,-10.00202 263.23966,143.36262 0,0 64.14378,91.68551 36.6534,215.87736 z"
       id="path4172-1"
       inkscape:connector-curvature="0" />
    <path
       style="fill:#ffffff;fill-opacity:1;fill-rule:evenodd;stroke:#000000;stroke-width:0;stroke-linecap:butt;stroke-linejoin:miter;stroke-miterlimit:4;stroke-dasharray:none;stroke-opacity:1"
       d="m 419.67428,404.62969 -33.85473,-31.1912 c -4.89469,-5.87902 -0.24491,-12.73784 -0.24491,-12.73784 l -4.07874,-10.77819 -8.15784,-16.00387 -7.50524,-13.88097 -1.95776,-0.48973 0,38.29505 c 12.88932,9.47171 21.14935,23.86751 21.14935,23.86751 8.19112,12.1247 11.07537,34.98867 11.07537,34.98867 l -92.17922,-0.69282 c 0,0 2.30732,-27.25192 20.99704,-47.57535 0,0 -6.72603,-4.30076 -8.35764,-31.89937 0,0 -1.14206,-31.19127 26.7576,-40.82628 l 10.44189,-0.3265 c 0,0 15.01021,1.30637 23.65749,16.1672 l 13.21556,25.14902 c 0,0 12.39973,20.41313 7.9947,26.61876 0,0 -1.79478,3.10278 -3.10002,3.10278 0,0 6.36312,4.81744 7.26036,5.96062 0,0 11.74726,11.26802 14.84725,12.5744 0,0 10.9313,6.36899 22.76016,3.10286 l 7.83137,-1.71469 29.32344,35.9023 c 0,0 2.42274,10.27718 -5.0761,11.5473 l -19.95878,-23.44124 7.03734,34.87326 -9.92157,0 6.34527,36.95165 0.0831,0.43559 c 0,0 -0.89729,2.28623 -5.9143,2.65356 0,0 -4.48676,0.65316 -5.996,-1.55139 l -6.169,-35.02488 -8.30646,-0.11608 -3.74945,39.89638 c 0,0 -1.27198,2.55203 -5.84051,2.02129 0,0 -3.91579,-0.0401 -5.01711,-2.28617 z"
       id="path4158-3"
       inkscape:connector-curvature="0" />
    <path
       style="fill:#ffffff;fill-opacity:1;fill-rule:evenodd;stroke:#000000;stroke-width:0;stroke-linecap:butt;stroke-linejoin:miter;stroke-miterlimit:4;stroke-dasharray:none;stroke-opacity:1"
       d="m 336.4652,279.53802 c 0,0 5.38401,7.83861 16.8049,6.3688 11.42084,-1.46963 14.52085,-13.22757 14.52085,-13.22757 0,0 3.42628,-9.47179 -5.54739,-17.80037 0,0 -7.01556,-6.85877 -18.27334,-3.59272 0,0 -11.25767,5.06251 -11.58398,16.00398 0,0 -0.81575,7.83864 4.07896,12.24788 z"
       id="path4160-7"
       inkscape:connector-curvature="0" />
    <path
       style="fill:#154889;fill-opacity:1;fill-rule:evenodd;stroke:#000000;stroke-width:0;stroke-linecap:butt;stroke-linejoin:miter;stroke-miterlimit:4;stroke-dasharray:none;stroke-opacity:1"
       d="m 331.48891,361.84381 4.4868,-4.32767 0,-36.60301 -4.49516,-1.20552 -2.98641,19.6237 c 0,0 -0.34629,3.46423 0.17319,4.61892 z"
       id="path4162-3"
       inkscape:connector-curvature="0" />
    <path
       style="fill:#ffffff;fill-opacity:1;fill-rule:evenodd;stroke:#000000;stroke-width:0;stroke-linecap:butt;stroke-linejoin:miter;stroke-miterlimit:4;stroke-dasharray:none;stroke-opacity:1"
       d="m 333.80104,421.20241 13.38269,0 0,52.99535 c 0,0 -0.76584,3.34776 -6.80298,2.93945 0,0 -4.48664,0.0815 -5.95502,-2.77628 z"
       id="path4164-04"
       inkscape:connector-curvature="0" />
    <path
       style="fill:#ffffff;fill-opacity:1;fill-rule:evenodd;stroke:#000000;stroke-width:0;stroke-linecap:butt;stroke-linejoin:miter;stroke-miterlimit:4;stroke-dasharray:none;stroke-opacity:1"
       d="m 352.33198,421.1644 13.21551,-0.042 0,64.05152 c 0,0 0.57108,4.7814 -5.83283,5.47549 0,0 -5.62873,0.3676 -6.93399,-4.40918 z"
       id="path4166-2"
       inkscape:connector-curvature="0" />
    <path
       style="fill:#ffffff;fill-opacity:1;fill-rule:evenodd;stroke:#000000;stroke-width:0;stroke-linecap:butt;stroke-linejoin:miter;stroke-miterlimit:4;stroke-dasharray:none;stroke-opacity:1"
       d="m 417.39005,370.58062 c 0,0 4.56839,11.0231 17.37622,8.73687 0,0 13.54183,-2.36791 12.9708,-16.98372 0,0 0,-10.12501 -11.17623,-14.04433 0,0 -10.44184,-3.02115 -17.29447,5.30746 0,0 -6.28133,7.1854 -1.87632,16.98372 z"
       id="path4168-0"
       inkscape:connector-curvature="0" />
    <path
       style="fill:#ffffff;fill-opacity:1;fill-rule:evenodd;stroke:none;stroke-width:1.27247155px;stroke-linecap:butt;stroke-linejoin:miter;stroke-opacity:1"
       d="m 260.56877,714.90976 c 0,0 -33.74203,-21.87038 -20.36683,-65.31195 0,0 10.63938,-32.3565 48.63717,-37.74925 0,0 35.5659,-4.79353 57.45267,30.55891 0,0 19.75882,34.75341 -9.42345,65.91116 0,0 -33.13413,35.35277 -76.29956,6.59113 z"
       id="path4236-0"
       inkscape:connector-curvature="0" />
    <path
       style="fill:#154889;fill-opacity:1;fill-rule:evenodd;stroke:none;stroke-width:1.27247155px;stroke-linecap:butt;stroke-linejoin:miter;stroke-opacity:1"
       d="m 314.00059,628.32925 -13.75663,41.3102 c -10.96232,12.28721 -11.39226,-4.44879 -11.39226,-4.44879 l 12.25205,-40.03912 c -7.30825,-1.48291 -17.19584,0.63556 -17.19584,0.63556 -32.67206,7.83835 -34.39167,40.25097 -34.39167,40.25097 0,0 -3.43916,31.35325 27.9432,44.69984 1.07476,0.20984 34.39169,13.13391 55.67155,-16.94794 0,0 16.76593,-25.20974 -0.85979,-49.78404 0,0 -7.09326,-11.4397 -18.27061,-15.67668 z"
       id="path4238-9"
       inkscape:connector-curvature="0" />
    <path
       style="fill:#ffffff;fill-opacity:1;fill-rule:evenodd;stroke:none;stroke-width:1.27247155px;stroke-linecap:butt;stroke-linejoin:miter;stroke-opacity:1"
       d="m 460.81007,613.71177 -16.76599,-34.53104 4.51394,-11.65158 13.5417,0 0,-11.65164 -51.58746,0 c -2.14949,2.54218 -0.42991,4.66067 -0.42991,4.66067 2.57937,2.96585 25.5788,6.35539 25.5788,6.35539 l -4.94382,11.22792 -100.38068,0 c 1.93455,-24.5743 13.32683,-22.24398 13.32683,-22.24398 l 19.99013,0.42372 0,-11.43978 -23.85922,0 c -15.90618,1.48294 -19.34114,20.54958 -19.34114,20.54958 l -14.43914,46.88694 11.39932,4.49399 4.71175,-13.48187 65.33391,71.30766 c 0,0 3.21408,5.08962 13.92942,5.16444 l 21.65877,0.15114 c 0,0 6.23166,40.81983 52.43693,45.16407 0,0 28.20798,5.55494 51.31485,-23.36155 0,0 19.20907,-23.97453 5.22589,-57.52925 0,0 -8.35953,-22.91918 -36.6299,-31.30793 0,0 -20.98878,-4.81213 -34.58498,0.81458 z"
       id="path4240-3"
       inkscape:connector-curvature="0" />
    <path
       style="fill:#154889;fill-opacity:1;fill-rule:evenodd;stroke:none;stroke-width:1.27247155px;stroke-linecap:butt;stroke-linejoin:miter;stroke-opacity:1"
       d="M 326.79002,589.98493 397.18546,666.14398 425.881,590.5145 Z"
       id="path4244-7"
       inkscape:connector-curvature="0" />
    <path
       style="fill:#154889;fill-opacity:1;fill-rule:evenodd;stroke:none;stroke-width:1.27247155px;stroke-linecap:butt;stroke-linejoin:miter;stroke-opacity:1"
       d="m 410.61973,667.94468 11.17727,0 c 0,0 1.00864,-22.51784 12.64503,-35.36034 0,0 9.15374,-10.99781 15.47627,-14.08781 l -11.40908,-23.1095 z"
       id="path4246-6"
       inkscape:connector-curvature="0"
       sodipodi:nodetypes="cccc" />
    <path
       style="fill:#154889;fill-opacity:1;fill-rule:evenodd;stroke:none;stroke-width:1.27247155px;stroke-linecap:butt;stroke-linejoin:miter;stroke-opacity:1"
       d="m 435.33871,668.15651 36.43368,-0.31774 -16.65849,-36.7555 c 0,0 -24.61148,15.46484 -19.77519,37.07324 z"
       id="path4248-7"
       inkscape:connector-curvature="0" />
    <path
       style="fill:#154889;fill-opacity:1;fill-rule:evenodd;stroke:none;stroke-width:1.27247155px;stroke-linecap:butt;stroke-linejoin:miter;stroke-opacity:1"
       d="m 487.26354,711.83891 c -40.80964,6.6663 -51.297,-31.75709 -51.297,-31.75709 l 48.94112,-0.37445 c 0,0 3.95178,-1.94754 1.89991,-9.51224 l -20.73132,-44.93766 c 0,0 33.63937,-11.33385 53.62955,22.77358 0,0 13.5417,22.66761 -3.00927,45.9707 0,0 -13.29698,17.45573 -29.43299,17.83716 z"
       id="path4250-0"
       inkscape:connector-curvature="0" />
    <path
       style="fill:#ffffff;fill-opacity:1;fill-rule:evenodd;stroke:none;stroke-width:1px;stroke-linecap:butt;stroke-linejoin:miter;stroke-opacity:1"
       d="m 138.61943,509.6164 496.71183,0 0,10.79084 -496.05397,0 -0.58694,0 z"
       id="path4560"
       inkscape:connector-curvature="0" />
  </g>
</svg>
