<?xml version="1.0" encoding="UTF-8" standalone="no"?>
<!-- Created with Inkscape (http://www.inkscape.org/) -->

<svg
   xmlns:dc="http://purl.org/dc/elements/1.1/"
   xmlns:cc="http://creativecommons.org/ns#"
   xmlns:rdf="http://www.w3.org/1999/02/22-rdf-syntax-ns#"
   xmlns:svg="http://www.w3.org/2000/svg"
   xmlns="http://www.w3.org/2000/svg"
   xmlns:sodipodi="http://sodipodi.sourceforge.net/DTD/sodipodi-0.dtd"
   xmlns:inkscape="http://www.inkscape.org/namespaces/inkscape"
   width="210mm"
   height="297mm"
   viewBox="0 0 744.09448819 1052.3622047"
   id="svg4298"
   version="1.1"
   inkscape:version="0.91 r13725"
   sodipodi:docname="GetrennterRadGehWeg.svg">
  <defs
     id="defs4300" />
  <sodipodi:namedview
     id="base"
     pagecolor="#ffffff"
     bordercolor="#666666"
     borderopacity="1.0"
     inkscape:pageopacity="0.0"
     inkscape:pageshadow="2"
     inkscape:zoom="0.7"
     inkscape:cx="240.84044"
     inkscape:cy="544.00637"
     inkscape:document-units="px"
     inkscape:current-layer="layer1"
     showgrid="false"
     inkscape:window-width="1920"
     inkscape:window-height="1028"
     inkscape:window-x="-8"
     inkscape:window-y="-8"
     inkscape:window-maximized="1" />
  <metadata
     id="metadata4303">
    <rdf:RDF>
      <cc:Work
         rdf:about="">
        <dc:format>image/svg+xml</dc:format>
        <dc:type
           rdf:resource="http://purl.org/dc/dcmitype/StillImage" />
        <dc:title></dc:title>
      </cc:Work>
    </rdf:RDF>
  </metadata>
  <g
     inkscape:label="Ebene 1"
     inkscape:groupmode="layer"
     id="layer1">
    <path
       style="opacity:1;fill:#154889;fill-opacity:1;fill-rule:evenodd;stroke:#000000;stroke-width:0.73752373px;stroke-linecap:butt;stroke-linejoin:miter;stroke-opacity:1"
       d="m 191.84978,606.58841 c 0,0 113.7574,132.79176 290.18678,53.74916 0,0 183.08167,-89.64327 128.71104,-290.85271 0,0 -39.44303,-159.16299 -215.0824,-179.7141 0,0 -145.76033,-20.53549 -236.99469,121.19863 0,0 -47.3991,80.09643 -31.5993,166.5163 0,0 10.00623,74.82704 64.77857,129.10272 z"
       id="path4170-0-5"
       inkscape:connector-curvature="0"
       sodipodi:nodetypes="ccccccc" />
    <path
       style="fill:none;fill-rule:evenodd;stroke:#000000;stroke-width:2.42806554;stroke-linecap:butt;stroke-linejoin:miter;stroke-miterlimit:4;stroke-dasharray:none;stroke-opacity:1"
       d="m 630.56328,493.52369 c -22.3443,106.06135 -108.48743,161.10967 -108.48743,161.10967 -89.53227,63.4587 -190.6512,43.79121 -190.6512,43.79121 -87.42568,-12.06221 -141.93498,-69.228 -141.93498,-69.228 0,0 -83.27332,-73.37096 -83.27332,-191.29934 0,0 -5.21344,-100.12763 74.48124,-183.19667 0,0 63.3089,-73.427 181.73392,-80.84391 0,0 154.17563,-8.90023 235.36028,127.57018 0,0 57.35041,81.58565 32.77149,192.09686 z"
       id="path4172-1-1"
       inkscape:connector-curvature="0" />
    <path
       style="fill:#ffffff;fill-opacity:1;fill-rule:evenodd;stroke:none;stroke-width:1.27247155px;stroke-linecap:butt;stroke-linejoin:miter;stroke-opacity:1"
       d="m 154.063,512.37692 c 0,0 -26.39135,-16.92074 -15.92993,-50.53076 0,0 8.3216,-25.03368 38.04159,-29.20595 0,0 27.81789,-3.70869 44.93666,23.64292 0,0 15.45439,26.88812 -7.37057,50.99434 0,0 -25.91587,27.35184 -59.67775,5.09945 z"
       id="path4236-0-5"
       inkscape:connector-curvature="0" />
    <path
       style="fill:#154889;fill-opacity:1;fill-rule:evenodd;stroke:none;stroke-width:1.27247155px;stroke-linecap:butt;stroke-linejoin:miter;stroke-opacity:1"
       d="m 195.85474,445.39104 -10.75978,31.96101 c -8.57416,9.5064 -8.91044,-3.44197 -8.91044,-3.44197 l 9.58293,-30.9776 c -5.71614,-1.14728 -13.44972,0.49174 -13.44972,0.49174 -25.55449,6.06438 -26.89948,31.1415 -26.89948,31.1415 0,0 -2.68991,24.25748 21.85582,34.58351 0.84061,0.1622 26.89946,10.16149 43.54353,-13.11233 0,0 13.11349,-19.50436 -0.67249,-38.51709 0,0 -5.54801,-8.85068 -14.29037,-12.12877 z"
       id="path4238-9-1"
       inkscape:connector-curvature="0" />
    <path
       style="fill:#ffffff;fill-opacity:1;fill-rule:evenodd;stroke:none;stroke-width:1.27247155px;stroke-linecap:butt;stroke-linejoin:miter;stroke-opacity:1"
       d="m 310.68188,434.08171 -13.11354,-26.71606 3.5306,-9.01463 10.59163,0 0,-9.01468 -40.34916,0 c -1.68123,1.96685 -0.33626,3.60588 -0.33626,3.60588 2.01745,2.29463 20.00648,4.91705 20.00648,4.91705 l -3.86681,8.68685 -78.51281,0 c 1.5131,-19.01271 10.42359,-17.20978 10.42359,-17.20978 l 15.63527,0.32782 0,-8.85076 -18.66147,0 c -12.44105,1.1473 -15.12769,15.89886 -15.12769,15.89886 l -11.29359,36.27564 8.91599,3.47692 3.68529,-10.43069 51.10096,55.16954 c 0,0 2.51389,3.93775 10.89491,3.99562 l 16.94041,0.11708 c 0,0 4.87412,31.58162 41.01357,34.94267 0,0 22.06292,4.29776 40.13595,-18.07443 0,0 15.02438,-18.54869 4.08743,-44.50943 0,0 -6.5384,-17.73216 -28.65006,-24.2224 0,0 -16.41641,-3.72307 -27.05069,0.63021 z"
       id="path4240-3-6"
       inkscape:connector-curvature="0" />
    <path
       style="fill:#154889;fill-opacity:1;fill-rule:evenodd;stroke:none;stroke-width:1.27247155px;stroke-linecap:butt;stroke-linejoin:miter;stroke-opacity:1"
       d="m 205.85801,415.72467 55.05982,58.92298 22.44427,-58.51327 z"
       id="path4244-7-4"
       inkscape:connector-curvature="0" />
    <path
       style="fill:#154889;fill-opacity:1;fill-rule:evenodd;stroke:none;stroke-width:1.27247155px;stroke-linecap:butt;stroke-linejoin:miter;stroke-opacity:1"
       d="m 271.42547,476.04085 8.74231,0 c 0,0 0.7889,-17.42171 9.89032,-27.35771 0,0 7.1596,-8.50884 12.10479,-10.89953 l -8.92363,-17.8794 z"
       id="path4246-6-9"
       inkscape:connector-curvature="0"
       sodipodi:nodetypes="cccc" />
    <path
       style="fill:#154889;fill-opacity:1;fill-rule:evenodd;stroke:none;stroke-width:1.27247155px;stroke-linecap:butt;stroke-linejoin:miter;stroke-opacity:1"
       d="m 290.75942,476.20471 28.49665,-0.24582 -13.02944,-28.43714 c 0,0 -19.2499,11.96491 -15.46721,28.68296 z"
       id="path4248-7-5"
       inkscape:connector-curvature="0" />
    <path
       style="fill:#154889;fill-opacity:1;fill-rule:evenodd;stroke:none;stroke-width:1.27247155px;stroke-linecap:butt;stroke-linejoin:miter;stroke-opacity:1"
       d="m 331.37248,510.00105 c -31.91927,5.1576 -40.12198,-24.56992 -40.12198,-24.56992 l 38.27931,-0.28971 c 0,0 3.0909,-1.50676 1.48603,-7.35947 l -16.21501,-34.76751 c 0,0 26.31106,-8.76879 41.94638,17.61952 0,0 10.59167,17.53757 -2.35371,35.56679 0,0 -10.40022,13.5052 -23.02102,13.8003 z"
       id="path4250-0-6"
       inkscape:connector-curvature="0" />
    <path
       style="fill:#ffffff;fill-opacity:1;fill-rule:evenodd;stroke:#000000;stroke-width:0;stroke-linecap:butt;stroke-linejoin:miter;stroke-miterlimit:4;stroke-dasharray:none;stroke-opacity:1"
       d="m 536.55553,468.68727 -31.33077,-28.59991 c -4.52976,-5.39063 -0.22657,-11.67961 -0.22657,-11.67961 l -3.77466,-9.88278 -7.54968,-14.6743 -6.94569,-12.72776 -1.8118,-0.44905 0,35.1136 c 11.9284,8.6848 19.57261,21.88465 19.57261,21.88465 7.58047,11.11741 10.24968,32.08187 10.24968,32.08187 l -85.307,-0.63526 c 0,0 2.13529,-24.98787 19.43167,-43.62289 0,0 -6.2246,-3.94344 -7.73458,-29.24924 0,0 -1.05691,-28.59999 24.76275,-37.43453 l 9.66343,-0.29938 c 0,0 13.89114,1.19784 21.89372,14.82407 l 12.2303,23.05969 c 0,0 11.47534,18.71726 7.3987,24.40733 0,0 -1.66098,2.84503 -2.86892,2.84503 0,0 5.88876,4.41721 6.71909,5.4654 0,0 10.87147,10.33194 13.74034,11.52977 0,0 10.11636,5.83988 21.06332,2.8451 l 7.24752,-1.57224 27.13729,32.91958 c 0,0 2.24214,9.42337 -4.69766,10.58799 l -18.4708,-21.49377 6.5127,31.97605 -9.18189,0 5.87223,33.88176 0.0767,0.39941 c 0,0 -0.83037,2.09632 -5.47333,2.43313 0,0 -4.1523,0.59889 -5.54901,-1.42251 l -5.70907,-32.11511 -7.68719,-0.10641 -3.46995,36.58187 c 0,0 -1.17713,2.34003 -5.40507,1.85337 0,0 -3.62383,-0.0369 -4.64306,-2.09624 z"
       id="path4158-3-3"
       inkscape:connector-curvature="0" />
    <path
       style="fill:#ffffff;fill-opacity:1;fill-rule:evenodd;stroke:#000000;stroke-width:0;stroke-linecap:butt;stroke-linejoin:miter;stroke-miterlimit:4;stroke-dasharray:none;stroke-opacity:1"
       d="m 459.54993,353.98792 c 0,0 4.9826,7.18739 15.55203,5.83969 10.56938,-1.34753 13.4383,-12.12865 13.4383,-12.12865 0,0 3.17084,-8.68491 -5.13382,-16.32156 0,0 -6.49255,-6.28897 -16.91104,-3.29423 0,0 -10.41837,4.64191 -10.72033,14.6744 0,0 -0.75495,7.18742 3.77486,11.23035 z"
       id="path4160-7-7"
       inkscape:connector-curvature="0" />
    <path
       style="fill:#154889;fill-opacity:1;fill-rule:evenodd;stroke:#000000;stroke-width:0;stroke-linecap:butt;stroke-linejoin:miter;stroke-miterlimit:4;stroke-dasharray:none;stroke-opacity:1"
       d="m 454.94462,429.45594 4.1523,-3.96812 0,-33.56213 -4.16004,-1.10537 -2.76375,17.99341 c 0,0 -0.32047,3.17644 0.16029,4.2352 z"
       id="path4162-3-4"
       inkscape:connector-curvature="0" />
    <path
       style="fill:#ffffff;fill-opacity:1;fill-rule:evenodd;stroke:#000000;stroke-width:0;stroke-linecap:butt;stroke-linejoin:miter;stroke-miterlimit:4;stroke-dasharray:none;stroke-opacity:1"
       d="m 457.08438,483.88314 12.38498,0 0,48.59263 c 0,0 -0.70876,3.06964 -6.29583,2.69523 0,0 -4.15213,0.0748 -5.51104,-2.54562 z"
       id="path4164-04-2"
       inkscape:connector-curvature="0" />
    <path
       style="fill:#ffffff;fill-opacity:1;fill-rule:evenodd;stroke:#000000;stroke-width:0;stroke-linecap:butt;stroke-linejoin:miter;stroke-miterlimit:4;stroke-dasharray:none;stroke-opacity:1"
       d="m 474.23378,483.84828 12.23025,-0.0385 0,58.73028 c 0,0 0.52853,4.38416 -5.39796,5.02059 0,0 -5.2091,0.33705 -6.41705,-4.04286 z"
       id="path4166-2-5"
       inkscape:connector-curvature="0" />
    <path
       style="fill:#ffffff;fill-opacity:1;fill-rule:evenodd;stroke:#000000;stroke-width:0;stroke-linecap:butt;stroke-linejoin:miter;stroke-miterlimit:4;stroke-dasharray:none;stroke-opacity:1"
       d="m 534.44161,437.4669 c 0,0 4.22779,10.10734 16.08078,8.01104 0,0 12.53224,-2.17118 12.00376,-15.57274 0,0 0,-9.28385 -10.343,-12.87758 0,0 -9.66337,-2.77015 -16.00514,4.86654 0,0 -5.81304,6.58846 -1.7364,15.57274 z"
       id="path4168-0-3"
       inkscape:connector-curvature="0" />
    <path
       style="fill:#ffffff;fill-opacity:1;fill-rule:evenodd;stroke:none;stroke-width:1px;stroke-linecap:butt;stroke-linejoin:miter;stroke-opacity:1"
       d="m 378.87075,661.81616 9.79634,0 0,-439.05429 -9.79634,0 z"
       id="path4651"
       inkscape:connector-curvature="0" />
  </g>
</svg>
