<?xml version="1.0" encoding="UTF-8" standalone="no"?>
<!-- Created with Inkscape (http://www.inkscape.org/) -->

<svg
   xmlns:dc="http://purl.org/dc/elements/1.1/"
   xmlns:cc="http://creativecommons.org/ns#"
   xmlns:rdf="http://www.w3.org/1999/02/22-rdf-syntax-ns#"
   xmlns:svg="http://www.w3.org/2000/svg"
   xmlns="http://www.w3.org/2000/svg"
   xmlns:sodipodi="http://sodipodi.sourceforge.net/DTD/sodipodi-0.dtd"
   xmlns:inkscape="http://www.inkscape.org/namespaces/inkscape"
   width="210mm"
   height="297mm"
   viewBox="0 0 744.09448819 1052.3622047"
   id="svg4298"
   version="1.1"
   inkscape:version="0.91 r13725"
   sodipodi:docname="SpielStrasseDurchgestrichen.svg">
  <defs
     id="defs4300" />
  <sodipodi:namedview
     id="base"
     pagecolor="#ffffff"
     bordercolor="#666666"
     borderopacity="1.0"
     inkscape:pageopacity="0.0"
     inkscape:pageshadow="2"
     inkscape:zoom="0.35"
     inkscape:cx="-90.714286"
     inkscape:cy="520"
     inkscape:document-units="px"
     inkscape:current-layer="layer1"
     showgrid="false"
     inkscape:window-width="1920"
     inkscape:window-height="1028"
     inkscape:window-x="-8"
     inkscape:window-y="-8"
     inkscape:window-maximized="1" />
  <metadata
     id="metadata4303">
    <rdf:RDF>
      <cc:Work
         rdf:about="">
        <dc:format>image/svg+xml</dc:format>
        <dc:type
           rdf:resource="http://purl.org/dc/dcmitype/StillImage" />
        <dc:title></dc:title>
      </cc:Work>
    </rdf:RDF>
  </metadata>
  <g
     inkscape:label="Ebene 1"
     inkscape:groupmode="layer"
     id="layer1">
    <path
       style="fill:none;fill-rule:evenodd;stroke:#000000;stroke-width:2.13765931px;stroke-linecap:butt;stroke-linejoin:miter;stroke-opacity:1"
       d="m 66.14348,666.13547 0,-354.93166 c 0,0 6.896451,-19.36677 21.256221,-20.12256 l 558.112039,0 c 0,0 19.70655,7.84884 19.77335,19.07156 l 0,362.8677 c 0,0 -11.24182,17.29982 -19.27194,17.67771 l -559.841599,0 c 0,0 -19.957058,-9.26957 -20.028071,-24.56275 z"
       id="path4419-9"
       inkscape:connector-curvature="0" />
    <path
       style="opacity:0.178;fill:#000000;fill-opacity:0.40500004;fill-rule:evenodd;stroke:#000000;stroke-width:2.64774895px;stroke-linecap:butt;stroke-linejoin:miter;stroke-opacity:1"
       d="m 353.59216,690.80883 19.83195,0"
       id="path4307-0-7-2"
       inkscape:connector-curvature="0" />
    <path
       style="fill:#154889;fill-opacity:1;fill-rule:evenodd;stroke:#000000;stroke-width:2.13765931px;stroke-linecap:butt;stroke-linejoin:miter;stroke-opacity:1"
       d="m 77.669081,663.11793 0,-348.89414 c 0,0 -0.4407,-11.62353 12.11805,-11.89073 l 552.825029,0 c 0,0 10.58088,0.65724 11.33664,12.56073 l 0,350.11357 c 0,0 -1.88943,11.80903 -10.20298,11.90349 l -554.220509,0 c 0,0 -11.85623,-2.45627 -11.85623,-13.79292 z"
       id="path4417-7"
       inkscape:connector-curvature="0" />
    <path
       style="fill:#ffffff;fill-opacity:1;fill-rule:evenodd;stroke:none;stroke-width:1px;stroke-linecap:butt;stroke-linejoin:miter;stroke-opacity:1"
       d="m 194.93325,654.77967 0,-123.98425 -42.75319,0 0,20.17416 -40.68998,63.02286 c 0,0 -9.44722,21.35069 8.88037,28.15268 l 52.51818,-80.88805 -0.40081,73.21483 c 0,0 0.5522,17.92124 22.44543,20.30777 z"
       id="path4363-4"
       inkscape:connector-curvature="0" />
    <path
       style="fill:#ffffff;fill-opacity:1;fill-rule:evenodd;stroke:none;stroke-width:1px;stroke-linecap:butt;stroke-linejoin:miter;stroke-opacity:1"
       d="m 152.0186,525.56656 -0.28341,-36.65517 -28.01272,41.41642 c 0,0 -10.53191,1.66286 -8.64245,-22.1441 l 43.17375,-68.58676 c 0,0 11.99796,-12.47033 28.15267,-1.7005 0,0 6.89646,3.30653 9.06932,9.73062 l 0,29.94767 c 0,0 -0.47235,3.11758 6.80199,5.76281 l 35.00787,20.87073 c 0,0 -11.48992,13.22677 -22.17821,10.6883 l -20.17416,-12.29154 0.1336,22.97984 -0.0171,0.73747 -43.00415,0 z"
       id="path4365-0"
       inkscape:connector-curvature="0" />
    <path
       style="fill:#ffffff;fill-opacity:1;fill-rule:evenodd;stroke:none;stroke-width:1px;stroke-linecap:butt;stroke-linejoin:miter;stroke-opacity:1"
       d="m 165.52812,405.39806 c 0,0 0.18897,19.65018 19.08335,21.35068 0,0 20.21702,2.64523 23.80697,-18.32758 0,0 3.58994,-20.59492 -19.83913,-24.75168 0,0 -22.10648,-0.37788 -23.05119,21.72858 z"
       id="path4367-8"
       inkscape:connector-curvature="0" />
    <path
       style="fill:#ffffff;fill-opacity:1;fill-rule:evenodd;stroke:none;stroke-width:1px;stroke-linecap:butt;stroke-linejoin:miter;stroke-opacity:1"
       d="m 280.12276,417.96284 0.18897,16.06025 3.11758,4.25125 14.45423,0 c 0,0 1.22813,-0.66131 1.22813,-1.70051 l 0,-18.70546 z"
       id="path4369-3"
       inkscape:connector-curvature="0" />
    <path
       style="fill:#ffffff;fill-opacity:1;fill-rule:evenodd;stroke:none;stroke-width:1px;stroke-linecap:butt;stroke-linejoin:miter;stroke-opacity:1"
       d="m 373.02699,432.99749 2.80568,5.34414 16.16605,-0.2672 0,-19.90696 -18.83812,0 z"
       id="path4371-8"
       inkscape:connector-curvature="0" />
    <path
       style="fill:#ffffff;fill-opacity:1;fill-rule:evenodd;stroke:none;stroke-width:1px;stroke-linecap:butt;stroke-linejoin:miter;stroke-opacity:1"
       d="m 273.55903,410.81927 6.54658,4.47572 114.23118,0 5.17713,-5.17715 0,-25.4181 -21.99042,-42.26734 -78.91377,0 -2.80568,0 -21.6438,40.19649 -0.95757,1.51292 z"
       id="path4373-5"
       inkscape:connector-curvature="0" />
    <path
       style="fill:#154889;fill-opacity:1;fill-rule:evenodd;stroke:none;stroke-width:1px;stroke-linecap:butt;stroke-linejoin:miter;stroke-opacity:1"
       d="m 288.24736,374.03332 10.67534,-23.90145 73.59378,0 11.71452,24.09039 z"
       id="path4375-9"
       inkscape:connector-curvature="0" />
    <path
       style="fill:#154889;fill-opacity:1;fill-rule:evenodd;stroke:none;stroke-width:1px;stroke-linecap:butt;stroke-linejoin:miter;stroke-opacity:1"
       d="m 280.78406,391.6996 c 0,0 -0.18897,-7.74671 9.54168,-7.93566 0,0 8.03014,-0.66131 8.40804,7.17989 0,0 1.32259,9.06931 -8.5025,8.97483 0,0 -9.35275,0.85025 -9.44722,-8.21906 z"
       id="path4377-4"
       inkscape:connector-curvature="0" />
    <path
       style="fill:#154889;fill-opacity:1;fill-rule:evenodd;stroke:none;stroke-width:1px;stroke-linecap:butt;stroke-linejoin:miter;stroke-opacity:1"
       d="m 373.03941,391.1674 c 0,0 -0.18897,-7.7467 9.54168,-7.93565 0,0 8.03014,-0.66131 8.40804,7.17988 0,0 1.32259,9.06932 -8.5025,8.97484 0,0 -9.35275,0.85025 -9.44722,-8.21907 z"
       id="path4377-1-1"
       inkscape:connector-curvature="0" />
    <path
       style="fill:#ffffff;fill-opacity:1;fill-rule:evenodd;stroke:none;stroke-width:1px;stroke-linecap:butt;stroke-linejoin:miter;stroke-opacity:1"
       d="m 496.74403,498.59693 0,-114.298 -28.39079,0 -0.90183,0 51.93845,-34.20255 0,-18.37051 17.70249,0 0,6.88059 15.29763,-10.42109 84.83833,55.37874 -29.66,0 0,115.0779 z"
       id="path4413-1"
       inkscape:connector-curvature="0" />
    <path
       style="fill:#ffffff;fill-opacity:1;fill-rule:evenodd;stroke:none;stroke-width:1px;stroke-linecap:butt;stroke-linejoin:miter;stroke-opacity:1"
       d="m 438.092,438.60884 c 0,0 -4.27532,51.03664 38.47787,94.59145 0,0 26.6015,26.18729 37.56026,30.72195 l 49.12548,36.65517 c 0,0 33.25418,29.47529 44.21296,27.20796 l 0,-14.73764 -32.12052,-23.0512 -66.9805,-47.71119 c -61.72491,-45.69247 -56.38076,-103.6765 -56.38076,-103.6765 z"
       id="path4415-9"
       inkscape:connector-curvature="0" />
    <path
       style="fill:#ffffff;fill-opacity:1;fill-rule:evenodd;stroke:none;stroke-width:1px;stroke-linecap:butt;stroke-linejoin:miter;stroke-opacity:1"
       d="m 321.02918,636.47679 c -1.88944,-14.73764 -16.24921,-13.60398 -16.24921,-13.60398 -18.51651,0.3779 -15.8713,16.24921 -15.8713,16.24921 0,0 1.13366,15.11554 15.8713,15.49343 0,0 16.6271,-0.37791 16.24921,-18.13866 z"
       id="path4357-8"
       inkscape:connector-curvature="0" />
    <path
       style="fill:#ffffff;fill-opacity:1;fill-rule:evenodd;stroke:none;stroke-width:1px;stroke-linecap:butt;stroke-linejoin:miter;stroke-opacity:1"
       d="m 397.92946,656.88278 -2.83417,-81.246 -22.6733,18.13864 -12.28136,-2.64522 c 0,0 -1.70051,-2.64523 2.07838,-5.47938 l 31.91737,-30.27231 c 0,0 16.83407,1.33603 24.04867,-2.27127 l 24.85029,3.6073 12.55875,23.11345 c 0,0 1.60324,9.21865 -10.95551,3.34009 l -9.35226,-15.23082 -10.02028,-0.13361 9.48587,36.34021 22.57903,2.27126 c 0,0 9.48586,1.06883 8.55063,12.15794 l -38.07705,-0.1336 -6.27938,-8.14983 -12.42514,2.13766 1.33603,36.20661 c 0,0 -1.89969,5.54226 -12.50657,8.24888 z"
       id="path4359-4"
       inkscape:connector-curvature="0" />
    <path
       style="fill:#ffffff;fill-opacity:1;fill-rule:evenodd;stroke:none;stroke-width:1px;stroke-linecap:butt;stroke-linejoin:miter;stroke-opacity:1"
       d="m 404.54251,548.4288 c 0,0 16.2492,0.94474 16.43815,-16.24918 0,0 1.13366,-14.54872 -15.87131,-15.49343 0,0 -16.81605,-1.13367 -16.6271,15.30448 0,0 -0.18897,16.24919 16.06026,16.43813 z"
       id="path4361-8"
       inkscape:connector-curvature="0" />
    <path
       style="fill:#154889;fill-opacity:1;fill-rule:evenodd;stroke:none;stroke-width:1px;stroke-linecap:butt;stroke-linejoin:miter;stroke-opacity:1"
       d="m 506.95026,486.833 0,-111.47707 45.90733,-36.81627 45.02445,37.80985 0,111.29191 -32.86651,0 0,-47.96375 -25.1175,0 0,47.83015 z"
       id="path4394-4"
       inkscape:connector-curvature="0" />
    <path
       style="fill:#ffffff;fill-opacity:1;fill-rule:evenodd;stroke:none;stroke-width:1px;stroke-linecap:butt;stroke-linejoin:miter;stroke-opacity:1"
       d="m 519.32306,383.29691 0,33.26732 27.78957,0 0,-33.00012 z"
       id="path4396-5"
       inkscape:connector-curvature="0" />
    <path
       style="fill:#ffffff;fill-opacity:1;fill-rule:evenodd;stroke:none;stroke-width:1px;stroke-linecap:butt;stroke-linejoin:miter;stroke-opacity:1"
       d="m 558.20174,383.50246 0,33.26733 27.78957,0 0,-33.00012 z"
       id="path4396-3-3"
       inkscape:connector-curvature="0" />
    <path
       style="fill:#c1121c;fill-opacity:1;fill-rule:evenodd;stroke:none;stroke-width:1px;stroke-linecap:butt;stroke-linejoin:miter;stroke-opacity:1"
       d="m 76.629681,653.18668 c 0,0 -2.6452,20.02808 10.58088,25.31851 l 39.678269,0 526.42242,-351.41772 0,-12.15794 c 0,0 -2.93928,-11.48991 -16.29965,-12.02433 l -28.69299,0 z"
       id="path4763"
       inkscape:connector-curvature="0" />
  </g>
</svg>
