<?xml version="1.0" encoding="UTF-8" standalone="no"?>
<!-- Created with Inkscape (http://www.inkscape.org/) -->

<svg
   xmlns:dc="http://purl.org/dc/elements/1.1/"
   xmlns:cc="http://creativecommons.org/ns#"
   xmlns:rdf="http://www.w3.org/1999/02/22-rdf-syntax-ns#"
   xmlns:svg="http://www.w3.org/2000/svg"
   xmlns="http://www.w3.org/2000/svg"
   xmlns:sodipodi="http://sodipodi.sourceforge.net/DTD/sodipodi-0.dtd"
   xmlns:inkscape="http://www.inkscape.org/namespaces/inkscape"
   width="210mm"
   height="297mm"
   viewBox="0 0 744.09448819 1052.3622047"
   id="svg4298"
   version="1.1"
   inkscape:version="0.91 r13725"
   sodipodi:docname="SpielStrasse.svg">
  <defs
     id="defs4300" />
  <sodipodi:namedview
     id="base"
     pagecolor="#ffffff"
     bordercolor="#666666"
     borderopacity="1.0"
     inkscape:pageopacity="0.0"
     inkscape:pageshadow="2"
     inkscape:zoom="0.35"
     inkscape:cx="-90.714286"
     inkscape:cy="520"
     inkscape:document-units="px"
     inkscape:current-layer="layer1"
     showgrid="false"
     inkscape:window-width="1920"
     inkscape:window-height="1028"
     inkscape:window-x="-8"
     inkscape:window-y="-8"
     inkscape:window-maximized="1" />
  <metadata
     id="metadata4303">
    <rdf:RDF>
      <cc:Work
         rdf:about="">
        <dc:format>image/svg+xml</dc:format>
        <dc:type
           rdf:resource="http://purl.org/dc/dcmitype/StillImage" />
        <dc:title></dc:title>
      </cc:Work>
    </rdf:RDF>
  </metadata>
  <g
     inkscape:label="Ebene 1"
     inkscape:groupmode="layer"
     id="layer1">
    <path
       style="fill:none;fill-rule:evenodd;stroke:#000000;stroke-width:1.97206318px;stroke-linecap:butt;stroke-linejoin:miter;stroke-opacity:1"
       d="m 106.06068,659.57794 0,-327.43645 c 0,0 6.36222,-17.86651 19.60958,-18.56374 l 514.87728,0 c 0,0 18.17996,7.24082 18.24159,17.59415 l 0,334.75773 c 0,0 -10.37097,15.95966 -17.77902,16.30829 l -516.47285,0 c 0,0 -18.41107,-8.5515 -18.47658,-22.65998 z"
       id="path4419"
       inkscape:connector-curvature="0" />
    <path
       style="opacity:0.178;fill:#000000;fill-opacity:0.40500004;fill-rule:evenodd;stroke:#000000;stroke-width:2.44263816px;stroke-linecap:butt;stroke-linejoin:miter;stroke-opacity:1"
       d="m 371.24183,682.33995 18.29563,0"
       id="path4307-0-7"
       inkscape:connector-curvature="0" />
    <path
       style="fill:#154889;fill-opacity:1;fill-rule:evenodd;stroke:#000000;stroke-width:1.97206318px;stroke-linecap:butt;stroke-linejoin:miter;stroke-opacity:1"
       d="m 116.69343,656.79416 0,-321.86664 c 0,0 -0.40656,-10.7231 11.17931,-10.9696 l 509.99984,0 c 0,0 9.76122,0.60632 10.45844,11.5877 l 0,322.99161 c 0,0 -1.74307,10.89422 -9.4126,10.98137 l -511.2872,0 c 0,0 -10.93779,-2.266 -10.93779,-12.72444 z"
       id="path4417"
       inkscape:connector-curvature="0" />
    <path
       style="fill:#ffffff;fill-opacity:1;fill-rule:evenodd;stroke:none;stroke-width:1px;stroke-linecap:butt;stroke-linejoin:miter;stroke-opacity:1"
       d="m 224.8736,649.10183 0,-114.37966 -39.44125,0 0,18.61135 -37.5379,58.14071 c 0,0 -8.71536,19.69673 8.19244,25.9718 l 48.44981,-74.62196 -0.36976,67.54316 c 0,0 0.50942,16.53295 20.70666,18.7346 z"
       id="path4363"
       inkscape:connector-curvature="0" />
    <path
       style="fill:#ffffff;fill-opacity:1;fill-rule:evenodd;stroke:none;stroke-width:1px;stroke-linecap:butt;stroke-linejoin:miter;stroke-opacity:1"
       d="m 185.28339,529.89836 -0.26145,-33.81563 -25.84269,38.20805 c 0,0 -9.71603,1.53405 -7.97296,-20.42868 l 39.82925,-63.27359 c 0,0 11.06853,-11.50431 25.9718,-1.56877 0,0 6.36221,3.05038 8.36676,8.97683 l 0,27.62771 c 0,0 -0.43577,2.87608 6.27506,5.31639 l 32.29595,19.25396 c 0,0 -10.59984,12.20214 -20.46016,9.86032 l -18.61135,-11.33937 0.12326,21.19969 -0.0158,0.68034 -39.67278,0 z"
       id="path4365"
       inkscape:connector-curvature="0" />
    <path
       style="fill:#ffffff;fill-opacity:1;fill-rule:evenodd;stroke:none;stroke-width:1px;stroke-linecap:butt;stroke-linejoin:miter;stroke-opacity:1"
       d="m 197.74638,419.03887 c 0,0 0.17433,18.12796 17.60504,19.69673 0,0 18.65088,2.44031 21.96273,-16.90782 0,0 3.31184,-18.99951 -18.30227,-22.83426 0,0 -20.39397,-0.3486 -21.2655,20.04535 z"
       id="path4367"
       inkscape:connector-curvature="0" />
    <path
       style="fill:#ffffff;fill-opacity:1;fill-rule:evenodd;stroke:none;stroke-width:1px;stroke-linecap:butt;stroke-linejoin:miter;stroke-opacity:1"
       d="m 303.46381,430.6303 0.17433,14.81613 2.87608,3.92193 13.33452,0 c 0,0 1.13299,-0.61008 1.13299,-1.56878 l 0,-17.25642 z"
       id="path4369"
       inkscape:connector-curvature="0" />
    <path
       style="fill:#ffffff;fill-opacity:1;fill-rule:evenodd;stroke:none;stroke-width:1px;stroke-linecap:butt;stroke-linejoin:miter;stroke-opacity:1"
       d="m 389.17111,444.50028 2.58834,4.93016 14.91373,-0.24651 0,-18.36484 -17.37881,0 z"
       id="path4371"
       inkscape:connector-curvature="0" />
    <path
       style="fill:#ffffff;fill-opacity:1;fill-rule:evenodd;stroke:none;stroke-width:1px;stroke-linecap:butt;stroke-linejoin:miter;stroke-opacity:1"
       d="m 297.40855,424.04013 6.03945,4.129 105.38212,0 4.77608,-4.7761 0,-23.44906 -20.28691,-38.99305 -72.80062,0 -2.58834,0 -19.96714,37.08262 -0.88338,1.39573 z"
       id="path4373"
       inkscape:connector-curvature="0" />
    <path
       style="fill:#154889;fill-opacity:1;fill-rule:evenodd;stroke:none;stroke-width:1px;stroke-linecap:butt;stroke-linejoin:miter;stroke-opacity:1"
       d="m 310.95903,390.10384 9.84837,-22.0499 67.89275,0 10.80705,22.22421 z"
       id="path4375"
       inkscape:connector-curvature="0" />
    <path
       style="fill:#154889;fill-opacity:1;fill-rule:evenodd;stroke:none;stroke-width:1px;stroke-linecap:butt;stroke-linejoin:miter;stroke-opacity:1"
       d="m 304.07389,406.40158 c 0,0 -0.17433,-7.1466 8.80252,-7.32091 0,0 7.40807,-0.61008 7.7567,6.62369 0,0 1.22014,8.36675 -7.84384,8.27958 0,0 -8.62824,0.78439 -8.71538,-7.58236 z"
       id="path4377"
       inkscape:connector-curvature="0" />
    <path
       style="fill:#154889;fill-opacity:1;fill-rule:evenodd;stroke:none;stroke-width:1px;stroke-linecap:butt;stroke-linejoin:miter;stroke-opacity:1"
       d="m 389.18258,405.91061 c 0,0 -0.17434,-7.1466 8.80252,-7.32091 0,0 7.40807,-0.61008 7.75669,6.62369 0,0 1.22014,8.36675 -7.84384,8.27959 0,0 -8.62823,0.78438 -8.71537,-7.58237 z"
       id="path4377-1"
       inkscape:connector-curvature="0" />
    <path
       style="fill:#ffffff;fill-opacity:1;fill-rule:evenodd;stroke:none;stroke-width:1px;stroke-linecap:butt;stroke-linejoin:miter;stroke-opacity:1"
       d="m 503.30427,505.01797 0,-105.44375 -26.19147,0 -0.83196,0 47.91498,-31.55302 0,-16.94741 16.33114,0 0,6.34757 14.11258,-9.61381 78.26625,51.08877 -27.36237,0 0,106.16324 z"
       id="path4413"
       inkscape:connector-curvature="0" />
    <path
       style="fill:#ffffff;fill-opacity:1;fill-rule:evenodd;stroke:none;stroke-width:1px;stroke-linecap:butt;stroke-linejoin:miter;stroke-opacity:1"
       d="m 449.19578,449.67695 c 0,0 -3.94412,47.083 35.49714,87.26379 0,0 24.54079,24.15866 34.65061,28.34204 l 45.31993,33.81563 c 0,0 30.6781,27.19195 40.78795,25.10027 l 0,-13.59598 -29.63226,-21.26551 -61.79178,-44.01518 C 457.08404,503.16916 462.0142,449.67695 462.0142,449.67695 Z"
       id="path4415"
       inkscape:connector-curvature="0" />
    <path
       style="fill:#ffffff;fill-opacity:1;fill-rule:evenodd;stroke:none;stroke-width:1px;stroke-linecap:butt;stroke-linejoin:miter;stroke-opacity:1"
       d="m 341.20137,632.21681 c -1.74307,-13.59597 -14.99044,-12.55013 -14.99044,-12.55013 -17.08211,0.34862 -14.64182,14.99044 -14.64182,14.99044 0,0 1.04585,13.9446 14.64182,14.29321 0,0 15.33906,-0.34864 14.99044,-16.73352 z"
       id="path4357"
       inkscape:connector-curvature="0" />
    <path
       style="fill:#ffffff;fill-opacity:1;fill-rule:evenodd;stroke:none;stroke-width:1px;stroke-linecap:butt;stroke-linejoin:miter;stroke-opacity:1"
       d="m 412.14449,651.04203 -2.61463,-74.95219 -20.91688,16.73351 -11.32997,-2.44031 c 0,0 -1.56878,-2.44031 1.91737,-5.05491 l 29.44486,-27.92723 c 0,0 15.53,1.23253 22.18571,-2.09533 l 22.92524,3.32786 11.58587,21.32294 c 0,0 1.47905,8.50452 -10.10683,3.08134 l -8.62777,-14.05094 -9.24405,-0.12326 8.75103,33.52508 20.82991,2.09531 c 0,0 8.75104,0.98604 7.88826,11.21611 l -35.12737,-0.12325 -5.79294,-7.5185 -11.46262,1.97207 1.23254,33.40182 c 0,0 -1.75253,5.11293 -11.53773,7.60988 z"
       id="path4359"
       inkscape:connector-curvature="0" />
    <path
       style="fill:#ffffff;fill-opacity:1;fill-rule:evenodd;stroke:none;stroke-width:1px;stroke-linecap:butt;stroke-linejoin:miter;stroke-opacity:1"
       d="m 418.24525,550.98956 c 0,0 14.99043,0.87155 15.16475,-14.99042 0,0 1.04584,-13.42169 -14.64182,-14.29322 0,0 -15.51338,-1.04584 -15.33906,14.11891 0,0 -0.17434,14.99042 14.81613,15.16473 z"
       id="path4361"
       inkscape:connector-curvature="0" />
    <path
       style="fill:#154889;fill-opacity:1;fill-rule:evenodd;stroke:none;stroke-width:1px;stroke-linecap:butt;stroke-linejoin:miter;stroke-opacity:1"
       d="m 512.71987,494.16535 0,-102.84136 42.35106,-33.96426 41.53658,34.88087 0,102.67054 -30.32048,0 0,-44.24816 -23.17174,0 0,44.12491 z"
       id="path4394"
       inkscape:connector-curvature="0" />
    <path
       style="fill:#ffffff;fill-opacity:1;fill-rule:evenodd;stroke:none;stroke-width:1px;stroke-linecap:butt;stroke-linejoin:miter;stroke-opacity:1"
       d="m 524.13419,398.64981 0,30.69024 25.63682,0 0,-30.44373 z"
       id="path4396"
       inkscape:connector-curvature="0" />
    <path
       style="fill:#ffffff;fill-opacity:1;fill-rule:evenodd;stroke:none;stroke-width:1px;stroke-linecap:butt;stroke-linejoin:miter;stroke-opacity:1"
       d="m 560.00109,398.83945 0,30.69023 25.63682,0 0,-30.44373 z"
       id="path4396-3"
       inkscape:connector-curvature="0" />
  </g>
</svg>
