<?xml version="1.0" encoding="UTF-8" standalone="no"?>
<!-- Created with Inkscape (http://www.inkscape.org/) -->

<svg
   xmlns:dc="http://purl.org/dc/elements/1.1/"
   xmlns:cc="http://creativecommons.org/ns#"
   xmlns:rdf="http://www.w3.org/1999/02/22-rdf-syntax-ns#"
   xmlns:svg="http://www.w3.org/2000/svg"
   xmlns="http://www.w3.org/2000/svg"
   xmlns:sodipodi="http://sodipodi.sourceforge.net/DTD/sodipodi-0.dtd"
   xmlns:inkscape="http://www.inkscape.org/namespaces/inkscape"
   width="210mm"
   height="297mm"
   viewBox="0 0 744.09448819 1052.3622047"
   id="svg4298"
   version="1.1"
   inkscape:version="0.91 r13725"
   sodipodi:docname="Stop.svg">
  <defs
     id="defs4300" />
  <sodipodi:namedview
     id="base"
     pagecolor="#ffffff"
     bordercolor="#666666"
     borderopacity="1.0"
     inkscape:pageopacity="0.0"
     inkscape:pageshadow="2"
     inkscape:zoom="0.35"
     inkscape:cx="-90.714286"
     inkscape:cy="520"
     inkscape:document-units="px"
     inkscape:current-layer="layer1"
     showgrid="false"
     inkscape:window-width="1920"
     inkscape:window-height="1028"
     inkscape:window-x="-8"
     inkscape:window-y="-8"
     inkscape:window-maximized="1" />
  <metadata
     id="metadata4303">
    <rdf:RDF>
      <cc:Work
         rdf:about="">
        <dc:format>image/svg+xml</dc:format>
        <dc:type
           rdf:resource="http://purl.org/dc/dcmitype/StillImage" />
        <dc:title></dc:title>
      </cc:Work>
    </rdf:RDF>
  </metadata>
  <g
     inkscape:label="Ebene 1"
     inkscape:groupmode="layer"
     id="layer1">
    <path
       style="fill:#ffffff;fill-opacity:1;fill-rule:evenodd;stroke:#000000;stroke-width:2.34748125px;stroke-linecap:butt;stroke-linejoin:miter;stroke-opacity:1"
       d="m 156.26746,391.0687 -3.94231,8.71458 0,166.82193 2.08036,5.1064 0.40952,1.79263 120.08484,120.08485 6.69155,3.06048 169.36371,0 8.50708,-4.66853 118.42492,-118.42492 2.64549,-6.06908 0,-168.63747 -4.25354,-7.98837 -115.8313,-115.83129 -7.21027,-4.09793 -174.15874,0 -6.87627,5.03164 z"
       id="path4787"
       inkscape:connector-curvature="0" />
    <path
       style="fill:#c1121c;fill-opacity:1;fill-rule:evenodd;stroke:#000000;stroke-width:2.34748125px;stroke-linecap:butt;stroke-linejoin:miter;stroke-opacity:1"
       d="m 174.21239,564.00894 0,-160.49084 112.09793,-112.09796 160.23565,0 111.743,111.74302 0,159.65535 -111.44365,111.44367 -160.32602,0 z"
       id="path4789"
       inkscape:connector-curvature="0" />
    <path
       style="fill:#ffffff;fill-opacity:1;fill-rule:evenodd;stroke:none;stroke-width:1px;stroke-linecap:butt;stroke-linejoin:miter;stroke-opacity:1"
       d="m 367.69976,533.82178 c 0,0 9.33706,24.69133 24.69132,24.69133 l 19.29656,0.20752 c 0,0 26.35122,-6.43217 27.1812,-28.42612 l 1.03745,-92.95555 c 0,0 -6.2247,-26.97371 -28.21865,-29.25609 0,0 -14.3168,-1.65993 -18.25911,0.41499 0,0 -22.40892,4.35727 -25.10629,25.72874 z"
       id="path4795"
       inkscape:connector-curvature="0" />
    <path
       style="fill:#ffffff;fill-opacity:1;fill-rule:evenodd;stroke:none;stroke-width:1px;stroke-linecap:butt;stroke-linejoin:miter;stroke-opacity:1"
       d="m 255.13643,451.44827 22.20144,0 c 0,0 -0.93371,-42.74292 -29.98231,-43.3654 l -13.90183,0 c 0,0 -27.80366,4.77226 -29.25607,30.29354 0,0 -3.94232,35.2733 14.73178,43.78039 0,0 10.37451,8.09212 29.0486,13.69436 0,0 13.48685,11.6194 3.73482,36.10323 0,0 -11.18413,14.30172 -23.80184,0.0702 0,0 -4.40153,-0.73366 -4.40153,-16.43244 l -20.39374,0 c 0,0 -4.69496,27.28947 14.23161,37.26626 0,0 24.2084,19.51344 48.27008,-3.66794 0,0 18.77985,-10.27023 8.06947,-56.77968 0,0 -7.62932,-18.04626 -32.86474,-24.06168 0,0 -20.98062,-2.4942 -15.11191,-26.84934 0,0 2.20076,-17.31268 21.42076,-11.44397 0,0 9.84867,2.73108 8.00541,21.39248 z"
       id="path4791"
       inkscape:connector-curvature="0" />
    <path
       style="fill:#ffffff;fill-opacity:1;fill-rule:evenodd;stroke:none;stroke-width:1px;stroke-linecap:butt;stroke-linejoin:miter;stroke-opacity:1"
       d="m 284.10386,408.63502 72.18505,0 0,20.98061 -24.94199,0 0,128.81804 -22.74123,0 0,-128.81804 -24.35512,0 z"
       id="path4793"
       inkscape:connector-curvature="0" />
    <path
       style="fill:#cb121c;fill-opacity:1;fill-rule:evenodd;stroke:none;stroke-width:1px;stroke-linecap:butt;stroke-linejoin:miter;stroke-opacity:1"
       d="m 389.48621,441.28128 c 0,0 12.65689,-28.21865 29.46357,-0.62248 l -0.41496,85.48585 c 0,0 -12.6569,24.27634 -28.42615,0.82998 z"
       id="path4797"
       inkscape:connector-curvature="0" />
    <path
       style="fill:#ffffff;fill-opacity:1;fill-rule:evenodd;stroke:none;stroke-width:1px;stroke-linecap:butt;stroke-linejoin:miter;stroke-opacity:1"
       d="m 459.87152,557.70008 0,-149.94537 35.21222,-0.58687 c 0,0 35.50566,2.64092 34.62535,35.50566 l 1.17374,26.99606 c 0,0 -2.05405,36.0925 -48.4168,29.93038 l 0,58.10014 z"
       id="path4799"
       inkscape:connector-curvature="0" />
    <path
       style="fill:#c1121c;fill-opacity:1;fill-rule:evenodd;stroke:none;stroke-width:1px;stroke-linecap:butt;stroke-linejoin:miter;stroke-opacity:1"
       d="m 483.0529,478.61933 0,-49.884 c 0,0 24.50184,-3.81466 26.99603,10.56366 l 0,28.1698 c 0,0 -1.90732,10.8571 -10.71038,11.15054 l -16.13893,0.58687 z"
       id="path4801"
       inkscape:connector-curvature="0" />
  </g>
</svg>
