<?xml version="1.0" encoding="UTF-8" standalone="no"?>
<!-- Created with Inkscape (http://www.inkscape.org/) -->

<svg
   xmlns:dc="http://purl.org/dc/elements/1.1/"
   xmlns:cc="http://creativecommons.org/ns#"
   xmlns:rdf="http://www.w3.org/1999/02/22-rdf-syntax-ns#"
   xmlns:svg="http://www.w3.org/2000/svg"
   xmlns="http://www.w3.org/2000/svg"
   xmlns:sodipodi="http://sodipodi.sourceforge.net/DTD/sodipodi-0.dtd"
   xmlns:inkscape="http://www.inkscape.org/namespaces/inkscape"
   width="76.603172mm"
   height="76.603172mm"
   viewBox="0 0 271.42856 271.42856"
   id="svg2"
   version="1.1"
   inkscape:version="0.91 r13725"
   sodipodi:docname="Helm1_oben.svg"
   inkscape:export-filename="C:\Users\Simon Hochholzer\Documents\Studium\TUD\Bachelor Medieninformatik\5. Semester\Komplexpraktikum Video und Visualisierung\Projekt\Objekte\Personen\Helme\Helm1_oben.png"
   inkscape:export-xdpi="300"
   inkscape:export-ydpi="300">
  <defs
     id="defs4" />
  <sodipodi:namedview
     id="base"
     pagecolor="#ffffff"
     bordercolor="#666666"
     borderopacity="1.0"
     inkscape:pageopacity="0.0"
     inkscape:pageshadow="2"
     inkscape:zoom="0.7"
     inkscape:cx="140.20095"
     inkscape:cy="46.814553"
     inkscape:document-units="px"
     inkscape:current-layer="g4232"
     showgrid="false"
     fit-margin-top="0"
     fit-margin-left="0"
     fit-margin-right="0"
     fit-margin-bottom="0"
     inkscape:window-width="1536"
     inkscape:window-height="803"
     inkscape:window-x="-8"
     inkscape:window-y="-8"
     inkscape:window-maximized="1" />
  <metadata
     id="metadata7">
    <rdf:RDF>
      <cc:Work
         rdf:about="">
        <dc:format>image/svg+xml</dc:format>
        <dc:type
           rdf:resource="http://purl.org/dc/dcmitype/StillImage" />
        <dc:title></dc:title>
      </cc:Work>
    </rdf:RDF>
  </metadata>
  <g
     inkscape:label="Helm"
     inkscape:groupmode="layer"
     id="layer1"
     transform="translate(-138.21428,-323.3622)">
    <g
       id="g4232">
      <path
         style="opacity:1;fill:#a6bf19;fill-opacity:1;fill-rule:nonzero;stroke:none;stroke-width:2;stroke-linecap:butt;stroke-linejoin:miter;stroke-miterlimit:4;stroke-dasharray:none;stroke-opacity:1"
         d="M 135.71484 0 A 135.71428 135.71428 0 0 0 0 135.71484 A 135.71428 135.71428 0 0 0 135.71484 271.42773 A 135.71428 135.71428 0 0 0 271.42773 135.71484 A 135.71428 135.71428 0 0 0 135.71484 0 z M 58.072266 71 L 112.35742 71 L 112.35742 93.857422 L 58.072266 93.857422 L 58.072266 71 z M 159.07227 73 L 213.35742 73 L 213.35742 95.857422 L 159.07227 95.857422 L 159.07227 73 z M 49.785156 128.14258 L 104.07227 128.14258 L 104.07227 151 L 49.785156 151 L 49.785156 128.14258 z M 167.35742 130.14258 L 221.64258 130.14258 L 221.64258 153 L 167.35742 153 L 167.35742 130.14258 z M 58.927734 181.57227 L 113.21484 181.57227 L 113.21484 204.42773 L 58.927734 204.42773 L 58.927734 181.57227 z M 158.21484 183.57227 L 212.5 183.57227 L 212.5 206.42773 L 158.21484 206.42773 L 158.21484 183.57227 z "
         transform="translate(138.21428,323.3622)"
         id="path4136" />
    </g>
  </g>
</svg>
