<?xml version="1.0" encoding="UTF-8" standalone="no"?>
<!DOCTYPE svg PUBLIC "-//W3C//DTD SVG 1.1//EN" "http://www.w3.org/Graphics/SVG/1.1/DTD/svg11.dtd">
<svg width="100%" height="100%" viewBox="0 0 1136 1920" version="1.1" xmlns="http://www.w3.org/2000/svg" xmlns:xlink="http://www.w3.org/1999/xlink" xml:space="preserve" style="fill-rule:evenodd;clip-rule:evenodd;stroke-linejoin:round;stroke-miterlimit:1.41421;">
    <g id="Körper" transform="matrix(1.0945,0.237974,-0.418925,1.92674,165.944,-773.158)">
        <path d="M741.214,584.699C741.214,543.302 682.049,509.693 609.174,509.693C536.3,509.693 477.135,543.302 477.135,584.699L477.135,816.874C477.135,858.271 536.3,891.88 609.174,891.88C682.049,891.88 741.214,858.271 741.214,816.874L741.214,584.699Z"/>
    </g>
    <g id="Oberarm2" transform="matrix(0.442992,-0.219843,0.472576,0.952258,145.563,90.1348)">
        <path d="M741.214,571.118C741.214,537.216 682.049,509.693 609.174,509.693C536.3,509.693 477.135,537.216 477.135,571.118L477.135,830.455C477.135,864.357 536.3,891.88 609.174,891.88C682.049,891.88 741.214,864.357 741.214,830.455L741.214,571.118Z"/>
    </g>
    <g id="Oberarm1" transform="matrix(0.313929,0.382128,-0.866439,0.711803,789.488,-156.563)">
        <path d="M741.214,567.926C741.214,535.786 682.049,509.693 609.174,509.693C536.3,509.693 477.135,535.786 477.135,567.926L477.135,833.647C477.135,865.787 536.3,891.88 609.174,891.88C682.049,891.88 741.214,865.787 741.214,833.647L741.214,567.926Z"/>
    </g>
    <g id="Schulter" transform="matrix(1.03364,0.0689564,-0.0665642,0.997782,303.572,53.3169)">
        <ellipse cx="302.047" cy="406.827" rx="142.176" ry="121.66"/>
    </g>
    <g id="Unterarm1" transform="matrix(0.462629,0.111054,-0.233661,0.973389,58.6234,124.059)">
        <path d="M741.214,572.448C741.214,537.812 682.049,509.693 609.174,509.693C536.3,509.693 477.135,537.812 477.135,572.448L477.135,829.125C477.135,863.761 536.3,891.88 609.174,891.88C682.049,891.88 741.214,863.761 741.214,829.125L741.214,572.448Z"/>
    </g>
    <g id="Oberschenkel1" transform="matrix(0.753531,0.168809,-0.294278,1.3136,119.793,209.924)">
        <path d="M741.214,585.436C741.214,543.632 682.049,509.693 609.174,509.693C536.3,509.693 477.135,543.632 477.135,585.436L477.135,816.137C477.135,857.941 536.3,891.88 609.174,891.88C682.049,891.88 741.214,857.941 741.214,816.137L741.214,585.436Z"/>
    </g>
    <g id="Oberschenkel2" transform="matrix(0.564481,-0.525239,0.855623,0.91955,-286.506,894.519)">
        <path d="M741.214,590.747C741.214,546.012 682.049,509.693 609.174,509.693C536.3,509.693 477.135,546.012 477.135,590.747L477.135,810.826C477.135,855.561 536.3,891.88 609.174,891.88C682.049,891.88 741.214,855.561 741.214,810.826L741.214,590.747Z"/>
    </g>
    <g id="Unterschenkel1" transform="matrix(0.620705,0.374189,-0.755749,1.25364,348.923,555.024)">
        <path d="M741.214,575.068C741.214,538.987 682.049,509.693 609.174,509.693C536.3,509.693 477.135,538.987 477.135,575.068L477.135,826.505C477.135,862.586 536.3,891.88 609.174,891.88C682.049,891.88 741.214,862.586 741.214,826.505L741.214,575.068Z"/>
    </g>
    <g id="Unterschenkel2" transform="matrix(0.712,-0.135458,0.297641,1.56448,192.712,600.293)">
        <path d="M741.214,569.784C741.214,536.619 682.049,509.693 609.174,509.693C536.3,509.693 477.135,536.619 477.135,569.784L477.135,831.789C477.135,864.954 536.3,891.88 609.174,891.88C682.049,891.88 741.214,864.954 741.214,831.789L741.214,569.784Z"/>
    </g>
    <g id="Unterarm2" transform="matrix(0.27919,-0.39918,0.820312,0.573735,214.268,724.181)">
        <path d="M741.214,573.945C741.214,538.483 682.049,509.693 609.174,509.693C536.3,509.693 477.135,538.483 477.135,573.945L477.135,827.628C477.135,863.09 536.3,891.88 609.174,891.88C682.049,891.88 741.214,863.09 741.214,827.628L741.214,573.945Z"/>
    </g>
    <g id="Kopf" transform="matrix(1,0,0,1.01909,-41.9583,-60.5066)">
        <ellipse cx="679.359" cy="216.375" rx="160.266" ry="156.021"/>
    </g>
    <g id="Becken1" transform="matrix(0.96549,0.260441,-0.302999,1.12326,777.473,-432.567)">
        <path d="M137.426,1236.11C137.426,1187.83 91.823,1148.63 35.652,1148.63C-20.518,1148.63 -66.121,1187.83 -66.121,1236.11L-66.121,1335.93C-66.121,1384.21 -20.518,1423.41 35.652,1423.41C91.823,1423.41 137.426,1384.21 137.426,1335.93L137.426,1236.11Z"/>
    </g>
    <g id="Becken2" transform="matrix(0.879545,-0.336064,0.295294,0.772842,120.774,61.4337)">
        <path d="M137.426,1264.45C137.426,1200.53 91.823,1148.63 35.652,1148.63C-20.518,1148.63 -66.121,1200.53 -66.121,1264.45L-66.121,1307.58C-66.121,1371.51 -20.518,1423.41 35.652,1423.41C91.823,1423.41 137.426,1371.51 137.426,1307.58L137.426,1264.45Z"/>
    </g>
    <g id="Ellbogen2" transform="matrix(0.601615,-0.22987,0.163867,0.428873,597.373,243.597)">
        <path d="M137.426,1286.02C137.426,1210.19 93.54,1148.63 39.484,1148.63L31.82,1148.63C-22.235,1148.63 -66.121,1210.19 -66.121,1286.02C-66.121,1361.85 -22.235,1423.41 31.82,1423.41L39.484,1423.41C93.54,1423.41 137.426,1361.85 137.426,1286.02Z"/>
    </g>
    <g id="Ellbogen1" transform="matrix(0.601615,-0.22987,0.163867,0.428873,-14.3692,160.371)">
        <path d="M137.426,1286.02C137.426,1210.19 93.54,1148.63 39.484,1148.63L31.82,1148.63C-22.235,1148.63 -66.121,1210.19 -66.121,1286.02C-66.121,1361.85 -22.235,1423.41 31.82,1423.41L39.484,1423.41C93.54,1423.41 137.426,1361.85 137.426,1286.02Z"/>
    </g>
    <g id="Knie1" transform="matrix(0.363224,-0.724518,0.624639,0.313152,-491.118,1074.34)">
        <path d="M137.426,1266.67C137.426,1201.52 91.823,1148.63 35.652,1148.63C-20.518,1148.63 -66.121,1201.52 -66.121,1266.67L-66.121,1305.36C-66.121,1370.51 -20.518,1423.41 35.652,1423.41C91.823,1423.41 137.426,1370.51 137.426,1305.36L137.426,1266.67Z"/>
    </g>
    <g id="Knie2" transform="matrix(-0.330107,-0.740194,0.638154,-0.2846,-25.8733,1755.07)">
        <path d="M137.426,1266.67C137.426,1201.52 91.823,1148.63 35.652,1148.63C-20.518,1148.63 -66.121,1201.52 -66.121,1266.67L-66.121,1305.36C-66.121,1370.51 -20.518,1423.41 35.652,1423.41C91.823,1423.41 137.426,1370.51 137.426,1305.36L137.426,1266.67Z"/>
    </g>
</svg>
