<?xml version="1.0" encoding="UTF-8" standalone="no"?>
<!-- Created with Inkscape (http://www.inkscape.org/) -->

<svg
   xmlns:dc="http://purl.org/dc/elements/1.1/"
   xmlns:cc="http://creativecommons.org/ns#"
   xmlns:rdf="http://www.w3.org/1999/02/22-rdf-syntax-ns#"
   xmlns:svg="http://www.w3.org/2000/svg"
   xmlns="http://www.w3.org/2000/svg"
   xmlns:sodipodi="http://sodipodi.sourceforge.net/DTD/sodipodi-0.dtd"
   xmlns:inkscape="http://www.inkscape.org/namespaces/inkscape"
   width="210mm"
   height="297mm"
   viewBox="0 0 210 297"
   version="1.1"
   id="svg8"
   inkscape:version="0.92.2 (5c3e80d, 2017-08-06)"
   sodipodi:docname="Ausrufezeichen.svg">
  <defs
     id="defs2">
    <inkscape:path-effect
       effect="bspline"
       id="path-effect836"
       is_visible="true"
       weight="33.333333"
       steps="2"
       helper_size="0"
       apply_no_weight="true"
       apply_with_weight="true"
       only_selected="false" />
  </defs>
  <sodipodi:namedview
     id="base"
     pagecolor="#ffffff"
     bordercolor="#666666"
     borderopacity="1.0"
     inkscape:pageopacity="0.0"
     inkscape:pageshadow="2"
     inkscape:zoom="1.5257812"
     inkscape:cx="359.48298"
     inkscape:cy="821.77763"
     inkscape:document-units="mm"
     inkscape:current-layer="layer1"
     showgrid="false"
     inkscape:window-width="1366"
     inkscape:window-height="705"
     inkscape:window-x="-8"
     inkscape:window-y="-8"
     inkscape:window-maximized="1" />
  <metadata
     id="metadata5">
    <rdf:RDF>
      <cc:Work
         rdf:about="">
        <dc:format>image/svg+xml</dc:format>
        <dc:type
           rdf:resource="http://purl.org/dc/dcmitype/StillImage" />
        <dc:title></dc:title>
      </cc:Work>
    </rdf:RDF>
  </metadata>
  <g
     inkscape:label="Ebene 1"
     inkscape:groupmode="layer"
     id="layer1">
    <path
       style="opacity:1;fill:#ff1616;fill-opacity:1;fill-rule:nonzero;stroke:#000000;stroke-width:11.33858282;stroke-linecap:round;stroke-linejoin:round;stroke-miterlimit:4;stroke-dasharray:none;stroke-dashoffset:0;stroke-opacity:1"
       d="m 396.22826,406.6049 c -3.79536,-4.0483 -13.89272,-10.22731 -22.5887,-13.823 -17.00291,-7.03052 -37.5738,-10.64318 -60.60346,-10.64318 h -13.66704 l -1.07918,-6.29328 c -3.8402,-22.39432 -18.09656,-49.6485 -35.81786,-68.47376 l -7.97542,-8.47225 4.98039,-2.81076 c 20.72106,-11.69423 34.749,-35.23383 37.60974,-63.11106 0.522,-5.0867 0.68805,-10.55371 0.36901,-12.14891 l -0.58007,-2.90036 4.07038,0.60423 c 5.40569,0.80245 27.76528,-0.94054 40.34081,-3.14466 30.70334,-5.38141 61.42491,-16.86993 83.56053,-31.24795 l 7.67867,-4.98763 -0.72708,4.86613 c -5.2469,35.11568 19.10352,65.85502 60.3785,76.22026 4.62565,1.16162 11.65009,2.40651 15.60986,2.76642 l 7.1996,0.65437 -6.27272,6.72996 c -15.65413,16.79524 -25.87348,45.60406 -28.9176,81.5201 -0.51356,6.05931 -1.0508,11.08102 -1.19385,11.15935 -0.14305,0.0783 -5.05668,1.72737 -10.91919,3.66452 -22.51706,7.4403 -48.05839,22.03036 -62.17279,35.51518 l -7.05101,6.7365 z"
       id="path24"
       inkscape:connector-curvature="0"
       transform="scale(0.26458333)" />
    <path
       style="color:#000000;clip-rule:nonzero;display:inline;overflow:visible;visibility:visible;opacity:1;isolation:auto;mix-blend-mode:normal;color-interpolation:sRGB;color-interpolation-filters:linearRGB;solid-color:#000000;solid-opacity:1;fill:#000000;fill-opacity:1;fill-rule:evenodd;stroke:#000000;stroke-width:0.86234677;stroke-linecap:butt;stroke-linejoin:round;stroke-miterlimit:4;stroke-dasharray:none;stroke-dashoffset:0;stroke-opacity:1;color-rendering:auto;image-rendering:auto;shape-rendering:auto;text-rendering:auto;enable-background:accumulate"
       d="m 94.077365,65.281286 c 0,0 5.971605,17.794677 5.971605,17.794677 0,0 6.33351,-17.794677 6.33351,-17.794677 0,0 -12.305115,0 -12.305115,0 z"
       id="path834"
       inkscape:connector-curvature="0"
       inkscape:path-effect="#path-effect836"
       inkscape:original-d="m 94.077365,65.281286 5.971605,17.794677 6.33351,-17.794677 z"
       sodipodi:nodetypes="cccc" />
    <path
       style="color:#000000;clip-rule:nonzero;display:inline;overflow:visible;visibility:visible;opacity:1;isolation:auto;mix-blend-mode:normal;color-interpolation:sRGB;color-interpolation-filters:linearRGB;solid-color:#000000;solid-opacity:1;fill:#000000;fill-opacity:1;fill-rule:nonzero;stroke:#000000;stroke-width:0.85169578;stroke-linecap:butt;stroke-linejoin:miter;stroke-miterlimit:4;stroke-dasharray:none;stroke-dashoffset:0;stroke-opacity:1;color-rendering:auto;image-rendering:auto;shape-rendering:auto;text-rendering:auto;enable-background:accumulate"
       id="path838"
       sodipodi:type="arc"
       sodipodi:cx="99.873528"
       sodipodi:cy="91.001289"
       sodipodi:rx="1.778911"
       sodipodi:ry="2.4523656"
       sodipodi:start="4.3986311"
       sodipodi:end="4.3926621"
       sodipodi:open="true"
       d="m 99.324493,88.668647 a 1.778911,2.4523656 0 0 1 2.240277,1.572276 1.778911,2.4523656 0 0 1 -1.13716,3.090739 1.778911,2.4523656 0 0 1 -2.243673,-1.563051 1.778911,2.4523656 0 0 1 1.130466,-3.095405" />
  </g>
</svg>
