<?xml version="1.0" encoding="UTF-8"?>
<svg viewBox="0 0 577 339" xmlns="http://www.w3.org/2000/svg" xmlns:xlink="http://www.w3.org/1999/xlink">
 <defs>
  <linearGradient id="a">
   <stop stop-color="#f2f2f2" offset="0"/>
   <stop stop-color="#b3b3b3" offset="1"/>
  </linearGradient>
  <linearGradient id="b">
   <stop stop-color="#333" offset="0"/>
   <stop stop-color="#999" offset="1"/>
  </linearGradient>
  <linearGradient id="c">
   <stop stop-color="#808080" offset="0"/>
   <stop stop-color="#f9f9f9" offset="1"/>
  </linearGradient>
  <linearGradient id="m" x2="0" y1="260.56" y2="254.75" gradientUnits="userSpaceOnUse">
   <stop stop-color="#e6e6e6" offset="0"/>
   <stop stop-color="#f2f2f2" offset="1"/>
  </linearGradient>
  <linearGradient id="l" x1="464.85" x2="468.28" y1="57.382" y2="32.581" gradientUnits="userSpaceOnUse">
   <stop stop-color="#666" offset="0"/>
   <stop stop-color="#fff" offset="1"/>
  </linearGradient>
  <linearGradient id="k" x1="459.68" x2="462.41" y1="37.541" y2="45.032" gradientUnits="userSpaceOnUse">
   <stop stop-color="#ccc" offset="0"/>
   <stop stop-color="#e6e6e6" offset="1"/>
  </linearGradient>
  <linearGradient id="j" x2="0" y1="37.82" y2="17.49" gradientUnits="userSpaceOnUse">
   <stop stop-color="#1a1a1a" offset="0"/>
   <stop stop-color="#4d4d4d" offset="1"/>
  </linearGradient>
  <linearGradient id="i" x2="0" y1="44.631" y2="26.263" gradientUnits="userSpaceOnUse">
   <stop stop-color="#4d4d4d" offset="0"/>
   <stop stop-color="#666" offset="1"/>
  </linearGradient>
  <linearGradient id="g" x2="0" y1="222.74" y2="213.72" gradientUnits="userSpaceOnUse">
   <stop stop-color="#ccc" offset="0"/>
   <stop stop-color="#ccc" stop-opacity="0" offset="1"/>
  </linearGradient>
  <linearGradient id="d" x1="372.94" x2="396.25" y1="106.03" y2="82.749" gradientUnits="userSpaceOnUse">
   <stop stop-color="#f2f2f2" offset="0"/>
   <stop stop-color="#f2f2f2" stop-opacity="0" offset="1"/>
  </linearGradient>
  <linearGradient id="r" x2="0" y1="150.59" y2="271.57" gradientUnits="userSpaceOnUse" xlink:href="#c"/>
  <linearGradient id="q" x2="0" y1="201.96" y2="79.52" gradientUnits="userSpaceOnUse" xlink:href="#b"/>
  <linearGradient id="p" x2="0" y1="92.584" y2="307.5" gradientUnits="userSpaceOnUse" xlink:href="#c"/>
  <linearGradient id="o" x2="0" y1="229.69" y2="106.87" gradientUnits="userSpaceOnUse" xlink:href="#b"/>
  <linearGradient id="n" x2="0" y1="240.44" y2="280.36" gradientUnits="userSpaceOnUse" xlink:href="#a"/>
  <linearGradient id="h" x1="387.26" x2="392.67" y1="65.996" y2="64.278" gradientTransform="matrix(-.1136 .97127 -.76337 -.22004 485.15 -329.6)" gradientUnits="userSpaceOnUse" xlink:href="#a"/>
  <linearGradient id="f" x1="387.26" x2="392.67" y1="65.996" y2="64.278" gradientTransform="matrix(.93334 .05487 -.05869 .99828 -152.72 -16.19)" gradientUnits="userSpaceOnUse" xlink:href="#a"/>
  <linearGradient id="e" x1="377.54" x2="382.96" y1="48.18" y2="46.462" gradientUnits="userSpaceOnUse" xlink:href="#a"/>
 </defs>
 <g transform="translate(-9.7179 -17.816)" fill="none" stroke-linecap="round">
  <path transform="matrix(.92064 0 0 .92064 37.083 18.587)" d="m572.64 234.21c0 58.191-47.173 105.36-105.36 105.36s-105.36-47.173-105.36-105.36 47.173-105.36 105.36-105.36 105.36 47.173 105.36 105.36z" stroke="url(#r)" stroke-width="12.866"/>
  <path d="m572.64 234.21c0 58.191-47.173 105.36-105.36 105.36s-105.36-47.173-105.36-105.36 47.173-105.36 105.36-105.36 105.36 47.173 105.36 105.36z" stroke="url(#q)" stroke-width="7.2"/>
 </g>
 <g transform="translate(-341.75 -19.436)" fill="none" stroke-linecap="round">
  <path transform="matrix(.92064 0 0 .92064 37.083 18.587)" d="m572.64 234.21c0 58.191-47.173 105.36-105.36 105.36s-105.36-47.173-105.36-105.36 47.173-105.36 105.36-105.36 105.36 47.173 105.36 105.36z" stroke="url(#p)" stroke-width="12.866"/>
  <path d="m572.64 234.21c0 58.191-47.173 105.36-105.36 105.36s-105.36-47.173-105.36-105.36 47.173-105.36 105.36-105.36 105.36 47.173 105.36 105.36z" stroke="url(#o)" stroke-width="7.2"/>
 </g>
 <path d="m374.52 31.43c0.28631 1.1453 11.166 28.918 11.166 28.918" fill="none" stroke="url(#e)" stroke-width="10"/>
 <path d="m203.01 54.054c0.20002 1.159 8.725 29.481 8.725 29.481" fill="none" stroke="url(#f)" stroke-width="9.6693"/>
 <g transform="translate(-9.7179 -17.816)" stroke="#1a1a1a">
  <path d="m393.4 72.152 17.752 50.392" stroke-width="10.4"/>
  <path d="m397.98 84.177-171.79 32.64" stroke-width="10.4"/>
  <path d="m406 103.65-132.28 146.02" stroke-width="12"/>
  <path d="m221.49 101.14 50.641 152.74" stroke-width="10.4"/>
  <path d="m130.03 232.74 142.51 20.691" stroke-width="8.9"/>
  <path d="m129.75 233.27 99.542-104.06" stroke-width="7.2"/>
  <path d="m411.44 121.4 6.5853 18.897" stroke-linecap="round" stroke-width="10.4"/>
  <path d="m413.73 142.87c-0.88107 0.85157 49.462 88.067 49.819 88.186-0.8555 1.481-2.0845 2.7753 0 5.7264 1.168 1.4088 2.4824 2.6714 5.1537 2.5769 1.1666-1.4563 3.1297 0.0243 3.7221-5.44-0.67725 1.9195 1.7119-4.1019-4.8674-4.8674-13.226-30.62-27.051-60.043-41.802-87.613l-3.7221-5.44z"/>
 </g>
 <path transform="translate(-9.7179 -17.816)" d="m295.05 279.59-8.7669-6.9656 6.0272 9.4367-8.0043-7.83 5.025 10.006-7.1568-8.6116 3.9695 10.47-6.2334-9.3018 2.8719 10.823-5.2439-9.8934 1.7439 11.061-4.1989-10.38 0.59737 11.181-3.1093-10.757-0.55546 11.183-1.9868-11.02-1.7024 11.067-0.84324-11.165-2.8313 10.833 0.30928-11.193-3.9302 10.485 1.4585-11.102-4.9874 10.025 2.5923-10.893-5.9918 9.4592 3.6986-10.569-6.9326 8.793 4.7657-10.132-7.8 8.0336 5.7822-9.5887-8.5847 7.189 6.7375-8.9434-9.2784 6.2682 7.6214-8.2032-9.8737 5.281 8.4244-7.3761-10.364 4.2377 9.1382-6.4708-10.745 3.1496 9.7551-5.4969-11.012 2.0281 10.269-4.4648-11.162 0.88507 10.673-3.3853-11.194-0.26733 10.965-2.2699-11.107-1.4169 11.14-1.1304-10.903-2.5514 11.197 0.021-10.583-3.659 11.136 1.1722-10.15-4.7277 10.956 2.311-9.6103-5.7463 10.66 3.4252-8.9686-6.704 10.252 4.5032-8.2317-7.5906 9.7344 5.5334-7.4076-8.3967 9.1139 6.505-6.505-9.1139 8.3967 7.4076-5.5334-9.7344 7.5906 8.2317-4.5032-10.252 6.704 8.9686-3.4252-10.66 5.7463 9.6103-2.311-10.956 4.7277 10.15-1.1722-11.136 3.659 10.583-0.021-11.197 2.5514 10.903 1.1304-11.14 1.4169 11.107 2.2699-10.965 0.26733 11.194 3.3853-10.673-0.88507 11.162 4.4648-10.269-2.0281 11.012 5.4969-9.7551-3.1496 10.745 6.4708-9.1382-4.2377 10.364 7.3761-8.4244-5.281 9.8737 8.2032-7.6214-6.2682 9.2784 8.9434-6.7375-7.189 8.5847 9.5887-5.7822-8.0336 7.8 10.132-4.7657-8.793 6.9326 10.569-3.6986-9.4592 5.9918 10.893-2.5923-10.025 4.9874 11.102-1.4585-10.485 3.9302 11.193-0.30928-10.833 2.8313 11.165 0.84324-11.067 1.7024 11.02 1.9868-11.183 0.55547 10.757 3.1093-11.181-0.59737 10.38 4.1989-11.061-1.7439 9.8934 5.2439-10.823-2.8719 9.3018 6.2334-10.47-3.9695 8.6116 7.1568-10.006-5.025 7.83 8.0043-9.4367-6.0272z" fill="none" stroke="url(#n)" stroke-linecap="round"/>
 <path transform="translate(-9.7179 -17.816)" d="m297.48 253.96a27.773 27.773 0 1 1 -55.546 0 27.773 27.773 0 1 1 55.546 0z" fill="none" stroke="url(#m)" stroke-linecap="round" stroke-width="9"/>
 <path d="m255.75 208.56c-0.2008 0.0111-0.40644 0.0591-0.625 0.0937-6.9941 1.1078-1.2428 11.087-6.25 16.094s-14.986-0.74405-16.094 6.25 10.16 4.5968 13.375 10.906-5.3407 14.035 0.96875 17.25 7.5372-8.236 14.531-9.3438 11.68 9.4135 16.688 4.4062-5.514-9.7247-4.4062-16.719 12.559-8.1906 9.3438-14.5-10.941 2.2461-17.25-0.96875c-6.1123-3.1144-4.0564-13.812-10.281-13.469zm2.5312 18.125c4.1114 0 7.4375 3.3574 7.4375 7.4688s-3.3262 7.4375-7.4375 7.4375-7.4375-3.3261-7.4375-7.4375 3.3262-7.4688 7.4375-7.4688z" fill="#f2f2f2" stroke="url(#g)" stroke-linecap="round" stroke-width=".91912"/>
 <path d="m403.91 32.768c-0.90679 0.02606-23.344 4.4824-23.344 4.4824" fill="none" stroke="url(#h)" stroke-linecap="round" stroke-width="8.7546"/>
 <path d="m175.53 42.883c1.1453 1.1453 8.3032 8.5895 8.3032 8.5895l21.76-1.7179 20.901-14.03" fill="none" stroke="#ccc" stroke-linecap="round" stroke-linejoin="round" stroke-width="1.5"/>
 <path d="m160.64 32.003 5.1537-2.8632 14.316 2.2905 24.051 1.4316 32.354-3.4358h6.8716l5.44 4.8674-10.594 5.1537-9.1622-1.4316-11.739 1.4316-24.91 5.44-9.1622 0.57264-7.4443-1.7179-8.5895-4.0084z" fill="#4d4d4d" stroke="#808080"/>
 <path d="m349.85 79.855c9.7974 2.7354 74.845 25.459 63.976-43.731-7.5336 29.668-4.8108 53.025 1.6197 74.099" fill="none" stroke="#ececec"/>
 <path d="m212.58 102.94c-7.8143 5.841-13.912 12.111-17.411 19.031" fill="none" stroke="#e6e6e6"/>
 <path d="m240.92 99.696c-9.5375 3.1119-13.453 7.1608-16.601 11.338" fill="none" stroke="#ececec"/>
 <path d="m433.87 26.507c-0.50936 1.068 14.649 21.511 14.071 16.601 2.4713-5.8866 6.4449-5.6351 9.4143-8.8069l3.2393-1.0123c0.26049-2.1942-0.48079-4.1459 0.20246-10.325-0.0211-1.2736-0.0259-2.5342-1.1135-4.6565-1.2016-1.3086-2.174-2.873-3.6442-3.6442-2.1465-0.64573-2.1898 1.2324-3.1381 2.0246-0.3637 0.584 0.735 1.7107-0.80983 4.4541-0.0145 2.3064-1.6534 2.1765-2.6319 3.0369-5.6109 1.6001-10.828 1.2334-15.589 2.3283z" fill="url(#j)" stroke="url(#i)"/>
 <path d="m460.79 23.774c1.4728 2.2793 3.3085 3.3123 6.2762 10.325 1.0759 3.0229-0.2178 12.908-0.50614 18.019 1.6841 2.9755 3.6473 5.3927 5.8713 7.2884-3.7454-3.7792-7.1845-3.3095-7.5921-9.1106 0.41712-6.0443 1.4451-12.916-0.40492-14.678-1.2569-0.81806-2.7296-2.7155-3.7455-2.3283z" fill="url(#l)" stroke="url(#k)"/>
 <path d="m406.02 33.721 27.2-2.8632c1.0326 6.7288 6.5895 11.727 10.594 13.743-0.0229 2.2828-0.19175 4.8212-1.7179 9.7348-0.3633 2.9833 0.31841 5.5908-1.4316 10.307-0.0299 1.871-0.62889 3.6454-4.5811 7.0148l-19.613 10.164" fill="none" stroke="#333" stroke-linecap="round" stroke-width="10"/>
 <path d="m370.94 105.87 7.569 7.5412-44.864 49.386-7.6754-7.3793z" fill="#ececec" stroke="#f9f9f9" stroke-width="1.1312"/>
 <path transform="translate(1.6197 .80983)" d="m125.52 213.48a4.859 4.859 0 1 1 -9.7179 0 4.859 4.859 0 1 1 9.7179 0z" stroke="#333" stroke-linecap="round" stroke-linejoin="round" stroke-width="1.5"/>
 <path d="m390.69 87.499-124.76 137.48" fill="none" stroke="url(#d)" stroke-linecap="round" stroke-width=".7"/>
</svg>
