<svg id="svg2" xmlns="http://www.w3.org/2000/svg" viewBox="0 0 294.1 331.17"><defs><style>.cls-1,.cls-2,.cls-3{fill:#fff;stroke:#000;}.cls-1{stroke-linejoin:round;}.cls-1,.cls-3{stroke-width:5px;}.cls-2{stroke-width:4.71px;}.cls-4{stroke:#1d1d1b;stroke-linecap:round;stroke-miterlimit:10;}</style></defs><title>DenkblaseAusrufezeichen</title><g id="layer1"><path id="path3336" class="cls-1" d="M336.72,187.15a52.72,52.72,0,0,0-12,1.5l-.23.06a43.9,43.9,0,0,0-16.62,8c-17.77-8.33-45.16-11.44-70.13-8l-.38.05c-28.77,4.12-47.58,16-45.91,29.09a73.47,73.47,0,0,0-17.73,2.06l-.32.08c-29.63,7.42-45.72,31.6-36,54a43.09,43.09,0,0,0,14.06,17.11q0,.25,0,.49a49.67,49.67,0,0,0-6.65,44.5c8.45,25.13,35.23,39.54,61.3,33q.41,1.5,1,3c7.42,18.83,31.66,29.08,54.19,22.9a45.44,45.44,0,0,0,15.54-7.64c14,10.32,33.28,13.63,50.84,8.73,17.33-4.88,30.48-17.07,34.78-32.24q1.07-.7,2.11-1.41a54.44,54.44,0,0,0,24.35-1.61c26.46-8,40.9-34.33,32.27-58.8a46.4,46.4,0,0,0-13.47-19.5q-.09-1.15-.22-2.3c11.85-8.35,16-20.69,10.86-31.93-6-12.91-23-21.64-42.25-21.62a23.56,23.56,0,0,0-.26-18.35C370.37,195.54,354.5,187,336.72,187.15Z" transform="translate(-132.11 -184.65)"/><path id="path4156" class="cls-2" d="M330.29,416.61c21.3-4.45,44.17,3,51.12,16.74s-4.67,28.43-25.95,32.92-44.19-3-51.2-16.65,4.54-28.44,25.79-33" transform="translate(-132.11 -184.65)"/><path id="path4158" class="cls-3" d="M370.66,486.46c11.24-2.34,23.31,1.61,27,8.83s-2.46,15-13.69,17.35-23.31-1.56-27-8.77,2.39-15,13.61-17.38" transform="translate(-132.11 -184.65)"/></g><ellipse class="cls-4" cx="131.2" cy="164.85" rx="28.32" ry="19.5"/><path class="cls-4" d="M264.89,324.54a71.48,71.48,0,0,1,27.75,9.56l24.9-108-59-19.61L240.78,324.95A75,75,0,0,1,264.89,324.54Z" transform="translate(-132.11 -184.65)"/></svg>