<?xml version="1.0" encoding="UTF-8" standalone="no"?>
<!-- Created with Inkscape (http://www.inkscape.org/) -->

<svg
   xmlns:dc="http://purl.org/dc/elements/1.1/"
   xmlns:cc="http://creativecommons.org/ns#"
   xmlns:rdf="http://www.w3.org/1999/02/22-rdf-syntax-ns#"
   xmlns:svg="http://www.w3.org/2000/svg"
   xmlns="http://www.w3.org/2000/svg"
   xmlns:sodipodi="http://sodipodi.sourceforge.net/DTD/sodipodi-0.dtd"
   xmlns:inkscape="http://www.inkscape.org/namespaces/inkscape"
   width="210mm"
   height="297mm"
   viewBox="0 0 744.09448819 1052.3622047"
   id="svg2"
   version="1.1"
   inkscape:version="0.91 r13725"
   sodipodi:docname="Denkblase.svg">
  <defs
     id="defs4" />
  <sodipodi:namedview
     id="base"
     pagecolor="#ffffff"
     bordercolor="#666666"
     borderopacity="1.0"
     inkscape:pageopacity="0.0"
     inkscape:pageshadow="2"
     inkscape:zoom="0.73964844"
     inkscape:cx="464.51536"
     inkscape:cy="578.84203"
     inkscape:document-units="px"
     inkscape:current-layer="layer1"
     showgrid="false"
     inkscape:window-width="681"
     inkscape:window-height="696"
     inkscape:window-x="676"
     inkscape:window-y="0"
     inkscape:window-maximized="0" />
  <metadata
     id="metadata7">
    <rdf:RDF>
      <cc:Work
         rdf:about="">
        <dc:format>image/svg+xml</dc:format>
        <dc:type
           rdf:resource="http://purl.org/dc/dcmitype/StillImage" />
        <dc:title></dc:title>
      </cc:Work>
    </rdf:RDF>
  </metadata>
  <g
     inkscape:label="Ebene 1"
     inkscape:groupmode="layer"
     id="layer1">
    <path
       style="color:#000000;clip-rule:nonzero;display:inline;overflow:visible;visibility:visible;opacity:1;isolation:auto;mix-blend-mode:normal;color-interpolation:sRGB;color-interpolation-filters:linearRGB;solid-color:#000000;solid-opacity:1;fill:#ffffff;fill-opacity:1;fill-rule:nonzero;stroke:#000000;stroke-width:5;stroke-linecap:butt;stroke-linejoin:round;stroke-miterlimit:4;stroke-dasharray:none;stroke-dashoffset:0;stroke-opacity:1;color-rendering:auto;image-rendering:auto;shape-rendering:auto;text-rendering:auto;enable-background:accumulate"
       d="M 420.90039 233.9375 A 50.754822 38.32848 0 0 0 405.93359 235.80664 L 405.64453 235.87695 A 50.754822 38.32848 0 0 0 384.86719 245.85742 A 84.011192 36.209118 0 0 0 297.20117 235.91016 L 296.72461 235.97656 A 84.011192 36.209118 0 0 0 239.3418 272.33398 A 70.714111 53.505856 0 0 0 217.17578 274.90625 L 216.77539 275.00586 A 70.714111 53.505856 0 0 0 171.83789 342.54102 A 70.714111 53.505856 0 0 0 189.41406 363.92578 A 160.60866 118.54448 0 0 0 189.38867 364.54102 A 64.001305 62.948898 0 0 0 181.08203 420.16016 A 64.001305 62.948898 0 0 0 257.70703 461.38281 A 53.701511 44.913342 0 0 0 258.92383 465.08789 A 53.701511 44.913342 0 0 0 326.65625 493.71484 A 53.701511 44.913342 0 0 0 346.08398 484.16797 A 65.964272 56.404228 0 0 0 409.63867 495.07422 A 65.964272 56.404228 0 0 0 453.11328 454.7793 A 160.60866 118.54448 0 0 0 455.75 453.01562 A 63.096256 58.316238 0 0 0 486.18359 451.00195 A 63.096256 58.316238 0 0 0 526.51758 377.50586 A 63.096256 58.316238 0 0 0 509.68164 353.12891 A 160.60866 118.54448 0 0 0 509.40625 350.25 A 55.448227 39.196159 0 0 0 522.98242 310.33789 A 55.448227 39.196159 0 0 0 470.17578 283.31641 A 50.754822 38.32848 0 0 0 469.85156 260.37891 A 50.754822 38.32848 0 0 0 420.90039 233.9375 z "
       id="path3336" />
    <path
       style="color:#000000;clip-rule:nonzero;display:inline;overflow:visible;visibility:visible;opacity:1;isolation:auto;mix-blend-mode:normal;color-interpolation:sRGB;color-interpolation-filters:linearRGB;solid-color:#000000;solid-opacity:1;fill:#ffffff;fill-opacity:1;fill-rule:nonzero;stroke:#000000;stroke-width:4.71280146;stroke-linecap:butt;stroke-linejoin:miter;stroke-miterlimit:4;stroke-dasharray:none;stroke-dashoffset:0;stroke-opacity:1;color-rendering:auto;image-rendering:auto;shape-rendering:auto;text-rendering:auto;enable-background:accumulate"
       id="path4156"
       sodipodi:type="arc"
       sodipodi:cx="428.52176"
       sodipodi:cy="551.82037"
       sodipodi:rx="50.738251"
       sodipodi:ry="32.646175"
       sodipodi:start="4.3986311"
       sodipodi:end="4.3926621"
       sodipodi:open="true"
       d="m 412.86215,520.76797 a 50.738251,32.646175 0 0 1 63.89742,20.93032 50.738251,32.646175 0 0 1 -32.43423,41.14428 50.738251,32.646175 0 0 1 -63.99423,-20.80752 50.738251,32.646175 0 0 1 32.24325,-41.20639" />
    <path
       style="color:#000000;clip-rule:nonzero;display:inline;overflow:visible;visibility:visible;opacity:1;isolation:auto;mix-blend-mode:normal;color-interpolation:sRGB;color-interpolation-filters:linearRGB;solid-color:#000000;solid-opacity:1;fill:#ffffff;fill-opacity:1;fill-rule:nonzero;stroke:#000000;stroke-width:5;stroke-linecap:butt;stroke-linejoin:miter;stroke-miterlimit:4;stroke-dasharray:none;stroke-dashoffset:0;stroke-opacity:1;color-rendering:auto;image-rendering:auto;shape-rendering:auto;text-rendering:auto;enable-background:accumulate"
       id="path4158"
       sodipodi:type="arc"
       sodipodi:cx="471.58994"
       sodipodi:cy="624.43689"
       sodipodi:rx="26.768108"
       sodipodi:ry="17.208071"
       sodipodi:start="4.3986311"
       sodipodi:end="4.3926621"
       sodipodi:open="true"
       d="m 463.32835,608.06891 a 26.768108,17.208071 0 0 1 33.71053,11.03254 26.768108,17.208071 0 0 1 -17.11141,21.6875 26.768108,17.208071 0 0 1 -33.7616,-10.96782 26.768108,17.208071 0 0 1 17.01065,-21.72023" />
    <text
       xml:space="preserve"
       style="font-style:normal;font-weight:normal;font-size:15px;line-height:125%;font-family:sans-serif;letter-spacing:0px;word-spacing:0px;fill:#000000;fill-opacity:1;stroke:none;stroke-width:1px;stroke-linecap:butt;stroke-linejoin:miter;stroke-opacity:1"
       x="294.73459"
       y="456.13303"
       id="text4161"
       sodipodi:linespacing="125%"><tspan
         sodipodi:role="line"
         id="tspan4163"
         x="294.73459"
         y="456.13303"
         style="font-style:normal;font-variant:normal;font-weight:bold;font-stretch:normal;font-size:250px;font-family:'Trebuchet MS';-inkscape-font-specification:'Trebuchet MS Bold'">?</tspan></text>
  </g>
</svg>
