<?xml version="1.0" encoding="UTF-8" standalone="no"?>
<svg
   xmlns:dc="http://purl.org/dc/elements/1.1/"
   xmlns:cc="http://creativecommons.org/ns#"
   xmlns:rdf="http://www.w3.org/1999/02/22-rdf-syntax-ns#"
   xmlns:svg="http://www.w3.org/2000/svg"
   xmlns="http://www.w3.org/2000/svg"
   xmlns:sodipodi="http://sodipodi.sourceforge.net/DTD/sodipodi-0.dtd"
   xmlns:inkscape="http://www.inkscape.org/namespaces/inkscape"
   version="1.1"
   height="725"
   width="725"
   id="svg2"
   inkscape:version="0.48.1 r9760"
   sodipodi:docname="Zeichen_237.svg">
  <metadata
     id="metadata14">
    <rdf:RDF>
      <cc:Work
         rdf:about="">
        <dc:format>image/svg+xml</dc:format>
        <dc:type
           rdf:resource="http://purl.org/dc/dcmitype/StillImage" />
      </cc:Work>
    </rdf:RDF>
  </metadata>
  <defs
     id="defs12" />
  <sodipodi:namedview
     pagecolor="#ffffff"
     bordercolor="#666666"
     borderopacity="1"
     objecttolerance="10"
     gridtolerance="10"
     guidetolerance="10"
     inkscape:pageopacity="0"
     inkscape:pageshadow="2"
     inkscape:window-width="640"
     inkscape:window-height="484"
     id="namedview10"
     showgrid="false"
     inkscape:zoom="0.32551724"
     inkscape:cx="362.5"
     inkscape:cy="362.5"
     inkscape:window-x="0"
     inkscape:window-y="0"
     inkscape:window-maximized="0"
     inkscape:current-layer="svg2" />
  <path
     style="fill:white; fill-rule:evenodd; stroke:black; stroke-width:2.5px"
     id="OuterCircle"
     d="M 712.50000,362.50000 C 712.50000,555.79966 555.79966,712.50000 362.50000,712.50000 C 169.20034,712.50000 12.500000,555.79966 12.500000,362.50000 C 12.500000,169.20034 169.20034,12.500000 362.50000,12.500000 C 555.79966,12.500000 712.50000,169.20034 712.50000,362.50000 L 712.50000,362.50000 z " />
  <path
     style="fill:#154889;fill-opacity:1;fill-rule:evenodd"
     id="BlueCircle"
     d="M 361.44830,27.362500 C 176.66244,27.362500 25.948300,178.07664 25.948300,362.86250 C 25.948300,547.64836 176.66244,698.36250 361.44830,698.36250 C 546.23416,698.36250 696.94830,547.64836 696.94830,362.86250 C 696.94830,178.07664 546.23416,27.362500 361.44830,27.362500 z " />
  <g
     transform="matrix(0.612193, 0, 0, 0.612193, 54.87296, 171.1686)"
     id="BikeSymbol">
    <circle
       r="161"
       cy="409"
       cx="215"
       style="fill:none; stroke:white; stroke-width:40px"
       id="FrontWheel"
       d="m 376,409 c 0,88.91784 -72.08216,161 -161,161 -88.91784,0 -161,-72.08216 -161,-161 0,-88.91784 72.08216,-161 161,-161 88.91784,0 161,72.08216 161,161 z" />
    <circle
       r="161"
       cy="406"
       cx="790"
       style="fill:none; stroke:white; stroke-width:40px"
       id="RearWheel"
       d="m 951,406 c 0,88.91784 -72.08216,161 -161,161 -88.91784,0 -161,-72.08216 -161,-161 0,-88.91784 72.08216,-161 161,-161 88.91784,0 161,72.08216 161,161 z" />
    <path
       style="fill:#ffffff;fill-rule:evenodd;stroke:none"
       id="Frame"
       d="M 429.48437,15.467118 C 296.91790,16.759190 319.39993,1.7711686 248.07762,230.98455 C 189.97511,414.12586 196.30387,394.15363 196.00000,407.00000 C 195.78704,416.98022 203.84333,424.89312 213.96694,425.57043 C 235.02054,423.44166 226.16492,427.84741 299.15748,201.18078 C 565.86963,482.53640 465.80592,436.91194 609.34064,442.62576 C 797.98299,440.81686 813.31557,452.44550 815.55516,424.79518 C 815.29674,415.40613 810.90371,409.80716 681.43820,121.67535 L 693.84208,87.564675 L 736.48042,86.789433 L 734.92994,51.128275 L 576.00521,51.128275 C 561.96471,70.337063 581.69033,70.250925 652.75423,86.014190 L 640.35035,120.90010 L 323.27614,121.67535 C 344.63838,47.079788 332.57905,51.731243 428.70913,51.903518 L 429.48437,15.467118 z M 314.11415,159.91012 L 624.37752,159.36001 L 534.70921,400.30922 L 314.11415,159.91012 z M 661.78516,174.21304 L 573.76718,405.26023 L 766.30650,405.81034 L 661.78516,174.21304 z " />
  </g>
</svg>
